<?xml version="1.0" standalone="no"?>
<!DOCTYPE svg PUBLIC "-//W3C//DTD SVG 20010904//EN"
 "http://www.w3.org/TR/2001/REC-SVG-20010904/DTD/svg10.dtd">
<svg version="1.0" xmlns="http://www.w3.org/2000/svg"
 width="700.000000pt" height="700.000000pt" viewBox="0 0 700.000000 700.000000"
 preserveAspectRatio="xMidYMid meet">
<metadata>
Created by potrace 1.11, written by Peter Selinger 2001-2013
</metadata>
<g transform="translate(0.000000,700.000000) scale(0.100000,-0.100000)"
fill="#000000" stroke="none">
<path d="M1567 6938 c-9 -35 -21 -115 -27 -180 -10 -113 -39 -245 -79 -358
-10 -30 -22 -70 -26 -87 -6 -30 -4 -34 21 -43 15 -6 62 -15 103 -20 105 -13
121 -22 162 -88 58 -90 68 -115 104 -255 18 -73 36 -139 40 -148 5 -13 -37
-60 -160 -180 -92 -90 -202 -204 -245 -254 -108 -125 -287 -401 -370 -569 -97
-199 -181 -479 -196 -656 -5 -49 -15 -92 -31 -123 -49 -98 -104 -254 -123
-347 -11 -57 -21 -166 -25 -271 -6 -148 -5 -185 9 -232 9 -31 20 -58 25 -61 5
-3 3 11 -5 32 -34 94 -8 284 65 477 41 109 120 266 137 272 5 2 18 -11 29 -27
19 -29 126 -120 140 -120 4 0 -8 17 -28 39 -34 38 -70 116 -82 182 -5 29 -1
43 30 89 41 61 288 371 292 367 1 -2 -11 -48 -28 -102 -112 -370 -190 -867
-175 -1121 12 -212 46 -356 118 -497 51 -98 116 -166 196 -206 34 -18 60 -35
58 -40 -7 -11 -124 -80 -203 -119 -114 -58 -376 -149 -489 -171 -177 -34 -265
-41 -381 -30 -118 11 -296 50 -346 75 -29 15 -31 15 -19 1 19 -23 154 -73 261
-97 141 -31 322 -26 546 14 44 8 122 20 174 27 52 6 126 20 165 30 104 29 272
98 328 135 26 18 48 30 48 28 0 -28 -192 -289 -291 -397 -41 -44 -52 -50 -170
-86 l-126 -39 -339 -5 c-365 -5 -456 -16 -593 -70 -54 -23 -56 -24 -59 -65 -2
-23 -1 -42 2 -42 3 0 36 11 72 25 101 38 163 52 354 79 212 30 352 41 403 29
l38 -8 -68 -29 c-37 -17 -140 -65 -227 -107 -88 -43 -163 -76 -167 -73 -19 11
-246 -93 -346 -159 l-63 -41 0 -63 0 -63 77 58 c101 77 296 207 399 266 153
87 487 237 500 223 2 -2 -36 -20 -84 -42 -180 -79 -464 -228 -581 -305 -67
-44 -124 -79 -127 -78 -4 0 -46 -29 -95 -66 l-89 -66 0 -265 c0 -146 2 -265 4
-265 3 0 37 52 77 116 127 206 292 409 400 495 l39 31 148 -26 c218 -38 365
-50 543 -43 137 6 175 11 310 46 294 75 535 176 742 311 59 38 113 70 118 70
17 0 -52 -89 -126 -162 -103 -102 -83 -94 -507 -198 -396 -96 -714 -235 -953
-416 -50 -38 -112 -85 -138 -104 -77 -58 -127 -203 -127 -363 1 -45 5 -102 10
-127 7 -37 5 -48 -10 -65 -26 -29 -45 -71 -68 -147 l-20 -68 76 0 77 1 49 77
c28 43 92 119 146 172 101 101 259 219 246 184 -60 -156 -106 -331 -106 -405
l0 -29 89 0 c62 0 92 4 100 13 6 8 8 17 4 20 -3 4 -1 7 5 7 7 0 12 7 12 16 0
23 31 113 41 120 5 3 9 12 9 21 0 19 53 107 88 145 15 16 21 31 16 39 -5 9 -2
10 10 6 10 -4 15 -3 11 3 -7 11 40 62 49 53 3 -4 6 3 6 15 0 16 4 20 17 15 11
-4 14 -3 9 5 -4 7 -2 12 3 12 6 0 11 6 11 13 0 17 43 43 48 28 2 -6 19 4 37
23 18 19 36 32 39 29 3 -4 6 -1 6 6 0 7 5 9 10 6 6 -3 10 1 10 10 0 8 11 21
25 27 14 6 25 17 25 25 0 7 6 13 13 13 16 1 57 35 57 49 0 6 6 11 13 11 8 0
22 9 32 20 10 11 23 20 29 20 14 0 66 48 66 60 0 6 6 10 13 10 15 0 114 90
101 91 -5 0 0 4 11 8 11 5 20 12 20 17 0 5 12 25 26 44 14 19 36 56 50 83 13
26 32 57 42 70 10 12 5 -3 -11 -33 -16 -30 -59 -112 -95 -182 -76 -146 -192
-325 -216 -333 -44 -14 -370 -190 -394 -213 -34 -32 -43 -68 -52 -196 -6 -94
-8 -102 -41 -141 -38 -46 -41 -55 -20 -55 8 0 23 15 35 32 l21 33 0 -33 0 -32
313 2 312 3 12 74 c11 64 21 86 77 170 80 121 278 311 441 425 39 27 96 74
127 105 32 30 58 52 58 47 0 -5 -28 -36 -63 -70 -74 -72 -224 -293 -233 -344
-4 -19 -4 -66 -1 -106 l6 -71 -60 -117 c-53 -106 -58 -118 -39 -118 15 0 31
22 66 93 41 80 48 90 58 73 6 -10 32 -52 58 -92 l48 -74 142 1 c138 0 142 1
118 17 -81 55 -207 215 -245 310 l-17 40 63 109 c34 59 69 116 77 126 10 11
12 21 6 27 -11 11 -107 -98 -140 -159 l-23 -44 -11 27 c-21 55 -13 79 41 126
61 53 139 110 151 110 4 0 8 -7 8 -15 0 -8 6 -15 14 -15 19 0 29 17 16 25 -19
12 -10 23 42 45 52 22 237 90 247 90 2 0 -7 -12 -21 -27 -14 -16 -33 -42 -42
-60 -21 -42 -27 -45 -108 -60 -41 -8 -34 -21 16 -34 43 -11 44 -12 33 -36 -6
-14 -13 -20 -15 -14 -7 20 -22 1 -22 -28 0 -15 -14 -74 -31 -130 -26 -89 -30
-118 -30 -215 0 -61 7 -133 14 -161 l13 -50 52 -3 52 -3 0 58 c0 61 21 177 42
228 6 17 29 60 50 97 l39 68 87 0 c99 0 183 18 267 55 32 14 60 24 61 22 2 -2
-1 -19 -6 -38 -5 -19 -18 -86 -29 -149 -19 -106 -19 -121 -6 -184 22 -104 44
-156 67 -156 11 0 17 3 15 8 -3 4 -17 34 -32 67 -48 107 -50 185 -9 364 9 36
16 74 17 83 1 10 34 35 84 63 194 108 376 293 626 638 115 159 113 157 140
157 36 0 157 -69 225 -129 58 -51 171 -191 201 -249 15 -28 14 -29 -101 -173
-212 -267 -325 -436 -423 -634 -105 -213 -105 -195 8 -195 l93 0 15 32 c10 23
38 46 101 84 106 65 338 188 343 183 2 -2 -7 -23 -19 -47 -21 -40 -23 -42 -37
-26 -8 10 -9 15 -2 11 10 -6 33 19 33 36 0 3 -42 -17 -92 -44 -51 -26 -92 -53
-90 -59 1 -7 -2 -9 -8 -5 -11 7 -109 -46 -137 -73 -9 -9 -19 -16 -22 -14 -3 1
-6 -2 -6 -7 0 -5 -4 -13 -9 -18 -5 -5 -6 -3 -2 5 4 6 3 12 -3 12 -11 0 -51
-48 -51 -61 0 -5 526 -9 1168 -9 l1168 0 35 82 c64 151 62 139 28 215 -25 57
-47 84 -134 168 -100 96 -105 103 -105 142 0 23 -11 73 -24 112 -41 121 -106
212 -256 362 -201 201 -440 385 -715 554 -60 37 -120 74 -133 81 -18 12 -20
18 -12 34 8 15 4 24 -24 47 l-34 28 5 73 6 72 61 0 c127 0 290 46 361 102 61
48 142 261 194 512 29 136 34 150 65 179 45 43 99 131 119 192 28 88 37 175
37 383 0 111 4 202 8 202 8 0 43 -240 62 -425 5 -49 10 -167 10 -262 0 -396
-71 -593 -257 -714 l-48 -31 35 7 c129 26 224 136 270 312 62 241 54 552 -27
978 -36 184 -37 199 -44 505 -9 441 -20 499 -226 1250 -52 189 -110 316 -209
458 -43 61 -48 82 -20 82 8 0 24 24 36 54 26 66 23 125 -20 316 -40 175 -43
205 -31 294 18 131 84 258 278 536 l66 95 -144 3 c-91 2 -145 -1 -147 -8 -2
-6 -10 -6 -21 -1 -13 8 -17 5 -18 -12 -2 -17 0 -18 7 -7 5 8 12 11 16 8 3 -4
-14 -58 -38 -120 -50 -123 -70 -197 -67 -243 1 -16 -4 -64 -11 -105 -14 -82
-8 -255 12 -396 11 -74 10 -87 -7 -126 -27 -63 -30 -64 -56 -19 -14 26 -28 40
-37 36 -7 -3 -17 -5 -22 -5 -4 0 -10 -14 -14 -32 -3 -17 -9 -28 -12 -25 -4 4
-19 -3 -35 -14 -39 -27 -201 -87 -436 -160 -109 -34 -211 -68 -226 -76 -15 -7
-48 -40 -74 -73 l-45 -59 -64 105 c-34 58 -81 130 -103 159 -32 42 -37 54 -25
59 8 3 12 2 9 -3 -3 -5 -1 -12 5 -16 5 -3 10 0 10 8 0 8 9 17 19 20 14 3 18 1
14 -10 -5 -12 -1 -14 18 -9 13 3 18 3 11 0 -6 -3 -9 -11 -5 -17 14 -22 12 -44
-2 -44 -10 0 -13 8 -10 25 3 18 0 22 -11 18 -8 -3 -12 -2 -9 3 3 5 1 12 -3 15
-18 11 -5 -43 18 -78 24 -35 40 -46 40 -27 0 11 56 8 67 -3 4 -4 1 -11 -7 -16
-8 -5 -17 -5 -20 -1 -5 8 -38 6 -47 -3 -5 -5 5 -6 59 -7 16 -1 25 -5 22 -10
-3 -5 3 -6 12 -2 13 5 15 3 9 -7 -5 -8 -4 -11 3 -6 6 3 13 2 17 -4 3 -5 1 -10
-4 -10 -6 0 -11 -5 -11 -12 0 -9 3 -9 12 0 17 17 31 15 24 -4 -5 -13 -4 -14 7
-6 8 7 17 9 20 5 4 -3 7 -1 7 6 0 7 4 10 9 6 5 -3 12 -1 16 5 4 6 -6 10 -23
10 -16 0 -41 9 -54 20 -14 10 -28 17 -30 14 -3 -2 -3 7 -1 20 7 37 -5 76 -23
76 -9 0 -29 13 -45 29 -23 24 -25 28 -9 24 11 -3 20 -9 20 -15 0 -5 8 -5 18 1
24 13 100 12 108 -1 4 -6 -2 -7 -16 -3 -15 5 -20 4 -16 -4 4 -6 3 -11 -3 -11
-5 0 -13 4 -16 10 -3 5 -16 8 -28 6 -12 -3 -25 -5 -29 -5 -20 -2 -5 -18 17
-18 14 0 25 4 25 10 0 7 4 7 12 -1 8 -8 8 -15 -2 -27 -7 -9 -8 -15 -2 -15 6 0
12 5 14 12 3 7 12 9 22 5 9 -4 14 -11 11 -17 -3 -5 0 -10 7 -10 7 0 21 -23 31
-50 16 -45 21 -50 40 -44 12 4 25 13 30 20 4 7 14 11 22 8 8 -4 15 -1 15 5 0
6 -5 11 -11 11 -5 0 -7 5 -4 10 5 8 11 7 21 -1 8 -6 14 -8 14 -3 0 4 5 3 11
-3 10 -10 53 -4 99 14 8 3 24 8 35 10 21 4 36 23 29 35 -3 4 2 8 10 8 8 0 18
-4 21 -10 8 -13 25 -13 25 1 0 5 -6 7 -12 3 -8 -4 -8 -2 1 7 11 11 14 12 18 1
4 -10 10 -9 26 5 11 10 17 12 12 4 -6 -10 -2 -11 16 -6 46 15 69 25 69 30 0 4
-4 3 -10 0 -5 -3 -10 -2 -10 3 0 5 9 12 19 15 15 3 18 1 15 -12 -3 -9 1 -5 9
8 9 15 16 19 19 11 2 -8 12 -10 26 -6 12 4 20 12 16 17 -6 11 23 49 37 49 5 0
6 -7 3 -15 -4 -8 -12 -15 -20 -15 -8 0 -14 -4 -14 -10 0 -5 9 -10 20 -10 11 0
20 5 20 11 0 5 5 7 10 4 6 -3 10 1 10 9 0 9 9 16 20 16 10 0 23 8 29 18 5 9
12 16 15 15 13 -6 26 -2 26 7 0 6 -11 8 -25 6 -15 -3 -24 0 -22 7 1 7 -8 11
-20 11 -26 -2 -31 11 -7 20 26 10 44 7 38 -7 -3 -9 4 -13 21 -13 30 0 31 4 8
22 -30 22 -69 17 -92 -12 -26 -33 -27 -45 -3 -38 14 5 14 4 2 -4 -8 -6 -17 -9
-21 -6 -4 2 -14 -5 -22 -16 -8 -12 -54 -37 -103 -56 -109 -42 -146 -53 -228
-62 -55 -7 -63 -6 -59 8 6 23 233 140 274 141 19 1 45 5 59 9 l25 8 -25 2
c-14 1 -44 2 -67 2 -23 -1 -45 3 -48 7 -2 5 1 8 8 7 6 0 13 3 14 8 2 14 32 28
44 21 6 -4 8 -13 6 -19 -3 -8 5 -13 23 -13 19 0 26 5 23 14 -3 7 0 13 7 13 6
0 9 4 6 9 -3 5 -20 7 -38 5 l-33 -2 30 13 c27 13 32 12 46 -5 15 -17 18 -17
23 -4 3 8 2 12 -4 9 -6 -3 -7 1 -4 10 5 11 2 14 -12 9 -11 -4 -2 5 18 20 20
14 42 34 48 44 11 16 11 16 6 0 -3 -10 -1 -18 4 -18 6 0 10 6 10 13 0 9 2 9 8
0 4 -7 13 -9 21 -4 8 5 10 14 6 21 -5 9 -4 11 3 6 7 -4 12 -16 12 -27 0 -10 4
-19 8 -19 5 0 9 -7 9 -16 0 -15 -1 -15 -12 0 -7 8 -16 12 -20 8 -5 -4 -6 -2
-2 3 3 7 -9 9 -34 7 -21 -2 -39 -8 -39 -13 0 -5 -7 -9 -16 -9 -12 0 -14 -3 -6
-13 12 -14 6 -53 -12 -77 -10 -13 -9 -13 6 -1 10 7 20 29 24 48 9 50 42 62 88
34 20 -13 45 -35 55 -50 19 -27 43 -33 68 -18 7 5 9 0 6 -13 -4 -16 -1 -18 17
-15 13 2 25 7 29 11 3 4 -2 4 -11 1 -22 -8 -23 -1 -4 19 11 11 16 11 19 1 3
-7 6 -5 6 6 1 9 -6 17 -14 17 -19 0 -19 7 0 27 9 8 13 18 10 22 -10 10 -44
-43 -35 -54 5 -6 -6 -10 -32 -10 -24 0 -43 5 -45 13 -3 6 0 12 7 12 6 0 8 -4
5 -10 -12 -20 27 -9 46 13 26 30 44 61 31 53 -6 -3 -16 0 -24 7 -7 7 -22 18
-33 25 -11 6 -14 12 -7 12 16 0 15 27 -2 33 -9 4 -12 15 -9 32 6 29 12 28 18
-5 2 -12 6 -25 9 -27 9 -10 26 9 26 28 0 10 5 19 10 19 6 0 10 6 10 13 0 18
-62 16 -84 -2 -9 -8 -15 -20 -12 -27 3 -8 -3 -12 -15 -11 -11 1 -19 9 -19 19
0 11 -7 18 -20 18 -11 0 -20 5 -20 11 0 5 5 7 11 4 6 -4 9 -1 7 6 -1 8 2 14 7
14 6 0 9 -3 8 -7 -2 -5 4 -8 13 -8 10 0 14 -5 10 -15 -7 -20 21 -6 47 23 10
11 26 18 36 15 27 -7 38 17 15 35 -16 13 -17 14 -1 9 18 -7 24 8 7 18 -7 4 -7
12 0 25 7 13 6 20 -3 23 -9 4 -9 7 1 18 18 19 16 63 -3 55 -8 -3 -15 -1 -15 4
0 6 6 10 14 10 14 0 35 85 23 96 -2 3 -8 -16 -11 -41 -10 -60 -24 -57 -24 5
-1 46 1 50 24 50 29 0 33 33 7 63 -17 20 -17 20 1 13 15 -5 17 -4 7 8 -6 7 -9
21 -5 30 5 12 2 15 -10 10 -9 -3 -16 -1 -16 4 0 18 18 24 38 13 13 -7 19 -6
19 2 1 22 8 42 18 49 6 4 -1 8 -15 8 -20 0 -22 2 -10 11 12 8 12 12 2 16 -9 4
-10 8 -2 18 17 20 2 62 -21 60 -24 -2 -49 -26 -53 -51 -2 -10 -7 -17 -12 -14
-11 6 -9 13 23 67 13 24 31 43 39 43 8 0 14 4 14 9 0 57 -139 -157 -196 -300
l-26 -67 -67 -25 c-96 -36 -97 -37 -110 -24 -25 25 -10 -36 19 -79 91 -131
104 -244 29 -244 -10 0 -31 -14 -46 -30 -15 -17 -32 -29 -38 -27 -5 3 -48 33
-95 69 -181 136 -379 242 -513 273 -32 7 -66 20 -75 28 -31 27 -226 108 -321
133 -345 90 -775 65 -1091 -64 -47 -19 -127 -47 -177 -63 -171 -54 -377 -155
-445 -217 l-27 -24 -88 63 c-48 34 -104 77 -124 95 -20 17 -68 50 -106 72 -82
48 -128 96 -142 149 -6 21 -11 102 -11 181 0 83 -4 142 -10 142 -5 0 -12 -17
-15 -37 -3 -21 -8 -47 -11 -58 -71 -321 -69 -306 -30 -333 18 -12 38 -22 44
-22 39 0 282 -106 296 -129 4 -5 2 -12 -3 -16 -16 -9 -1 -34 19 -32 10 1 16 5
14 9 -3 5 -9 6 -13 4 -4 -3 -8 1 -8 9 0 8 3 15 7 15 16 0 224 -212 213 -216
-7 -3 -63 -39 -124 -79 l-112 -74 -92 87 c-101 97 -192 162 -239 171 -23 5
-36 16 -48 42 -13 25 -35 44 -82 69 l-65 35 -30 -29 -29 -28 -16 29 c-17 34
-20 55 -18 141 2 49 6 66 22 79 21 18 27 43 10 43 -16 0 -12 30 6 48 11 10 13
17 5 20 -6 2 -11 8 -11 14 0 6 7 7 16 4 8 -3 12 -2 9 4 -3 6 3 10 14 10 10 0
21 -6 24 -12 2 -7 8 -10 12 -6 11 11 -4 28 -26 28 -12 0 -19 7 -19 18 1 21 46
56 62 46 7 -4 8 -3 4 4 -5 8 0 11 15 9 12 -1 24 4 27 12 3 10 0 12 -11 8 -9
-3 -19 -2 -22 3 -3 5 3 11 12 13 10 2 4 3 -14 1 -24 -2 -31 1 -26 12 3 7 8 12
12 10 4 -3 13 -1 21 4 9 5 19 5 27 -2 20 -16 16 -56 -7 -70 -24 -15 -26 -28
-5 -28 8 0 15 5 15 11 0 5 5 7 11 3 8 -5 8 -8 0 -14 -7 -3 -9 -14 -5 -23 3
-10 3 -29 0 -43 l-7 -27 -15 22 c-19 26 -31 27 -39 0 -5 -14 -10 -17 -19 -10
-13 11 -39 0 -36 -15 1 -5 6 -18 12 -29 9 -20 9 -20 -7 0 -14 17 -17 18 -25 5
-6 -9 -6 -16 0 -18 6 -2 10 -13 10 -24 0 -17 3 -18 15 -8 23 19 19 -10 -6 -40
-14 -16 -19 -19 -15 -7 3 11 0 17 -10 17 -10 0 -14 -6 -11 -14 3 -7 0 -19 -6
-25 -9 -9 -6 -13 11 -17 12 -4 22 -11 22 -17 0 -6 -3 -8 -6 -4 -8 8 -33 -16
-27 -25 2 -5 14 -8 26 -8 18 0 19 2 7 10 -13 8 -12 10 3 10 9 0 17 -7 17 -15
0 -8 9 -19 20 -25 14 -7 20 -7 20 0 0 5 5 10 10 10 6 0 10 -11 10 -25 0 -14
-3 -25 -7 -25 -3 0 -21 11 -39 25 -32 25 -74 34 -74 16 0 -5 7 -12 16 -15 8
-3 12 -10 9 -16 -4 -6 -11 -7 -17 -4 -6 4 -9 1 -6 -7 3 -8 10 -14 15 -14 6 0
15 -4 19 -8 5 -4 16 2 25 15 17 22 18 22 38 4 12 -11 21 -15 21 -10 0 5 5 2
11 -6 8 -11 9 -9 3 10 -6 22 -5 23 10 11 14 -12 16 -12 11 1 -4 9 0 18 7 20
10 4 13 -6 13 -36 0 -38 2 -41 25 -38 18 2 21 0 12 -6 -11 -8 -11 -10 1 -15 9
-3 18 0 21 8 5 15 -27 30 -43 21 -7 -4 -8 32 -2 62 1 2 14 -6 29 -17 18 -13
32 -17 38 -11 6 6 22 6 41 1 34 -10 73 -4 73 10 0 5 -6 9 -14 9 -8 0 -13 7
-12 15 3 21 16 31 16 12 0 -13 9 -16 38 -15 20 1 51 -1 67 -5 25 -6 27 -5 12
4 -11 6 -33 13 -50 16 -18 3 -34 8 -37 12 -18 27 -75 16 -64 -12 2 -7 -6 -18
-18 -26 -22 -13 -23 -13 -5 6 9 11 14 23 10 26 -3 4 -13 -2 -20 -13 -8 -11
-18 -18 -23 -15 -4 3 -10 -1 -13 -7 -4 -12 -68 51 -90 88 -4 7 -2 64 5 126 16
147 14 222 -6 253 -16 25 -43 36 -30 13 5 -10 4 -10 -6 -1 -11 10 -16 9 -26
-5 -11 -15 -13 -12 -9 18 4 32 2 36 -20 38 -20 1 -25 -3 -25 -21 0 -12 -16
-101 -35 -197 -20 -96 -45 -231 -55 -300 -30 -188 -30 -190 -41 -190 -5 0 -21
12 -34 26 l-23 25 24 87 c43 150 74 310 74 377 0 53 6 77 30 125 35 70 35 70
11 70 -14 0 -22 -14 -34 -62z m117 -9 c-2 -16 1 -31 6 -34 13 -8 -17 -38 -39
-41 -12 -2 -11 1 4 13 14 11 16 17 7 20 -6 3 -9 10 -5 16 4 6 6 29 4 52 -2 36
-1 38 12 21 8 -11 13 -32 11 -47z m3867 -62 c-13 -12 -20 -15 -16 -7 14 26 28
41 33 35 3 -3 -5 -16 -17 -28z m49 0 c0 -8 -11 -20 -25 -27 -28 -15 -81 -118
-88 -171 -2 -19 -2 -26 0 -16 2 9 9 17 14 17 6 0 7 -5 3 -12 -5 -7 -3 -8 6 -3
10 6 12 4 7 -9 -4 -9 -1 -19 6 -22 9 -3 12 -42 11 -145 -1 -124 -3 -143 -21
-167 -25 -33 -58 -40 -72 -15 -7 14 -1 47 20 123 16 57 28 115 28 129 -1 21
-2 22 -6 6 -3 -11 -11 -25 -19 -32 -10 -7 -12 -13 -5 -18 6 -3 11 -12 11 -18
0 -7 -4 -6 -11 3 -8 12 -9 10 -4 -7 4 -14 2 -23 -4 -23 -6 0 -11 -5 -11 -11 0
-5 5 -7 12 -3 6 4 8 3 5 -3 -4 -6 -20 -10 -37 -9 -16 1 -30 -2 -30 -8 0 -6 -5
-5 -12 2 -16 16 9 44 38 40 13 -2 23 0 24 5 0 4 0 17 0 29 l0 21 -19 -21 c-23
-27 -35 -28 -28 -3 3 13 -1 21 -14 24 -11 3 -19 2 -19 -2 0 -4 -7 -8 -15 -8
-9 0 -14 6 -11 14 3 8 2 12 -3 8 -5 -3 -12 1 -15 7 -3 10 -9 8 -19 -4 -8 -10
-18 -14 -22 -10 -4 4 -2 -3 4 -15 6 -13 14 -23 17 -23 3 0 2 5 -2 11 -3 6 0
15 7 20 19 11 31 -12 16 -30 -8 -10 -8 -13 -1 -8 7 4 14 0 17 -8 4 -9 1 -12
-9 -8 -7 3 -14 0 -14 -5 0 -6 9 -9 20 -7 13 2 24 -4 32 -18 10 -20 10 -21 -5
-9 -8 7 -23 12 -32 10 -10 -2 -26 15 -46 50 -29 49 -29 52 -10 52 11 0 23 5
26 10 4 6 16 8 27 4 14 -4 18 -2 14 5 -11 16 5 13 18 -4 6 -8 22 -16 36 -17
21 -3 25 1 26 22 0 14 4 33 8 42 4 9 5 22 1 27 -10 17 63 146 113 202 44 50
62 60 62 36z m-102 -59 c-8 -13 -23 -38 -32 -56 -10 -19 -20 -31 -23 -29 -7 8
48 107 60 107 5 0 3 -10 -5 -22z m92 13 c0 -5 -10 -15 -21 -23 -21 -14 -21
-14 -1 -14 11 0 18 5 15 10 -3 5 -1 6 5 2 11 -7 12 -46 1 -46 -4 0 -10 8 -14
18 -6 15 -8 15 -26 -7 -22 -27 -24 -49 -7 -86 9 -19 9 -28 0 -37 -9 -9 -12 -6
-12 16 0 15 -4 25 -9 21 -31 -19 -9 66 35 133 14 22 34 30 34 13z m-3848 -79
c6 -23 -16 -44 -37 -35 -15 5 -15 3 -4 -16 8 -11 17 -21 22 -21 4 0 5 5 1 12
-4 6 -3 8 4 4 6 -3 12 -1 15 6 2 7 2 2 0 -10 -3 -17 0 -21 8 -16 9 5 10 2 6
-10 -4 -10 -7 -20 -7 -22 0 -3 -4 -2 -10 1 -5 3 -10 1 -10 -4 0 -6 -4 -11 -10
-11 -5 0 -7 8 -3 18 6 16 5 16 -13 0 -19 -17 -20 -16 -20 15 0 17 -3 44 -7 58
-6 24 -5 25 25 21 26 -4 30 -2 25 12 -4 9 -3 16 2 16 5 0 11 -8 13 -18z m3818
-42 c0 -5 -4 -10 -10 -10 -5 0 -10 5 -10 10 0 6 5 10 10 10 6 0 10 -4 10 -10z
m-3940 -34 c0 -3 -4 -8 -10 -11 -5 -3 -10 -1 -10 4 0 6 5 11 10 11 6 0 10 -2
10 -4z m3795 -19 c-1 -13 -4 -27 -7 -33 -3 -5 -5 -24 -4 -42 0 -17 -2 -32 -6
-32 -7 0 -12 16 -9 32 0 4 -7 4 -17 1 -16 -6 -16 -5 1 14 9 11 17 22 17 26 0
9 19 57 23 57 1 0 2 -10 2 -23z m-1738 -27 c100 -14 139 -29 238 -95 81 -54
158 -122 107 -96 -13 7 -26 10 -29 7 -3 -3 -40 12 -82 33 -162 81 -296 116
-500 128 l-116 7 50 12 c64 15 230 17 332 4z m-1994 -27 c3 9 12 17 19 17 9 0
10 -3 2 -8 -15 -10 -30 -57 -15 -48 15 10 14 -7 -1 -23 -10 -11 -10 -13 0 -7
6 4 12 2 12 -3 0 -6 -7 -11 -15 -11 -8 0 -15 8 -15 18 0 9 -2 35 -5 57 -3 29
-2 33 3 15 7 -21 9 -22 15 -7z m65 -43 c4 -3 23 -23 42 -44 l35 -38 -33 19
c-28 16 -34 16 -42 3 -13 -21 -23 -5 -11 18 9 17 8 19 -9 15 -11 -3 -20 0 -20
6 0 6 3 10 8 10 18 -3 21 2 13 24 -4 12 -5 29 -2 37 4 9 7 4 9 -15 2 -16 7
-32 10 -35z m2372 9 c117 -20 173 -41 223 -81 l28 -23 -78 -3 c-43 -1 -107 -9
-143 -16 -64 -14 -65 -13 -105 14 -22 15 -67 53 -100 84 l-60 56 60 -6 c33 -3
112 -14 175 -25z m-458 -53 c59 -13 135 -37 170 -51 35 -15 88 -34 119 -43
l57 -16 -100 -48 c-93 -44 -106 -48 -177 -48 -79 0 -121 -16 -121 -45 0 -23
17 -27 59 -14 42 13 109 5 215 -26 72 -21 69 -29 -4 -10 -63 17 -186 20 -195
5 -4 -6 13 -10 44 -10 42 0 63 -7 118 -41 170 -104 295 -226 465 -455 58 -79
86 -129 127 -230 29 -71 70 -169 91 -219 54 -126 74 -194 119 -400 56 -253 75
-372 64 -398 -8 -17 -12 -6 -22 54 -21 131 -99 474 -121 530 -20 54 -50 107
-35 64 21 -62 59 -222 89 -375 44 -223 59 -353 22 -187 -7 28 -36 38 -36 12 0
-8 -7 -15 -15 -15 -8 0 -15 6 -15 12 0 7 -7 2 -16 -10 -8 -12 -20 -22 -25 -22
-6 0 -3 7 6 16 22 22 14 26 -18 11 -15 -6 -25 -17 -23 -23 3 -7 -7 -14 -22
-17 -15 -3 -40 -9 -57 -15 -16 -6 -65 -18 -108 -27 -42 -9 -76 -20 -74 -23 2
-4 -4 -15 -15 -24 -11 -11 -18 -13 -18 -6 0 8 -3 9 -10 2 -8 -8 -7 -26 0 -59
6 -26 9 -50 6 -52 -2 -2 -11 31 -20 74 -33 151 -159 580 -223 757 -35 98 -85
240 -110 315 -53 160 -117 299 -198 431 -100 160 -144 194 -160 121 -8 -37 25
-94 136 -236 100 -128 139 -198 212 -380 124 -307 190 -519 268 -869 49 -219
63 -299 30 -176 -13 48 -22 65 -34 64 -9 -1 -16 1 -15 5 3 27 -2 33 -19 20
-15 -12 -16 -12 -8 1 6 12 5 12 -5 3 -10 -9 -6 -30 19 -104 17 -51 29 -94 27
-97 -9 -8 -75 227 -95 338 -51 278 -209 866 -252 940 -15 27 -10 0 30 -138 76
-263 158 -629 175 -777 3 -27 13 -107 22 -176 8 -70 14 -137 12 -150 -2 -13
-7 7 -12 45 -8 67 -28 111 -39 83 -4 -7 -6 -6 -6 5 -1 11 -9 15 -30 14 -19 -1
-27 2 -24 10 3 8 -2 11 -16 7 -13 -3 -18 -10 -14 -21 4 -10 2 -13 -5 -8 -18
11 -14 -22 17 -171 15 -73 24 -133 21 -133 -3 0 -14 42 -24 93 -36 192 -61
297 -72 297 -6 0 -30 78 -53 173 -159 653 -244 993 -251 1007 -15 25 -12 -24
9 -130 l19 -95 -39 -148 c-42 -162 -54 -193 -194 -512 -53 -121 -98 -229 -100
-240 -1 -11 -3 -24 -4 -28 0 -5 -6 -5 -11 -2 -6 4 -10 3 -9 -2 3 -18 -2 -33
-10 -31 -11 4 -89 -81 -97 -104 -3 -10 -10 -18 -15 -18 -5 0 -9 -6 -9 -14 0
-7 -7 -19 -15 -26 -8 -7 -15 -21 -15 -31 0 -11 -7 -19 -17 -19 -9 0 -14 -3
-10 -6 3 -3 -15 -36 -41 -72 -74 -107 -203 -286 -214 -297 -21 -21 15 34 121
184 69 97 108 161 106 173 -2 10 -1 17 3 14 4 -2 15 1 24 8 15 11 8 14 -47 24
-35 7 -68 12 -72 11 -17 -3 -52 14 -47 22 3 5 3 9 -1 9 -9 0 -26 -51 -19 -61
3 -6 14 -3 25 7 11 10 19 12 19 6 0 -7 -6 -12 -12 -12 -9 0 -8 -3 2 -10 8 -5
11 -12 7 -17 -5 -4 -11 -3 -15 3 -6 10 -39 11 -47 2 -3 -4 -78 -175 -95 -216
-7 -18 -14 -31 -16 -29 -6 5 80 211 170 410 93 206 204 424 337 667 56 102
119 220 141 262 37 73 82 188 73 188 -2 0 -31 -55 -64 -122 -33 -68 -77 -151
-98 -185 -21 -34 -54 -90 -73 -124 -43 -77 -555 -650 -574 -643 -7 3 -19 -3
-27 -13 -13 -16 -12 -17 4 -4 9 8 20 11 23 8 4 -3 -27 -43 -66 -89 -40 -46
-74 -85 -76 -86 -1 -2 -30 15 -63 37 -68 46 -131 76 -206 96 -30 8 -40 14 -25
14 39 0 163 -52 229 -98 l60 -41 38 46 c21 25 37 50 35 56 -1 5 2 7 8 3 5 -3
10 1 10 10 0 9 -4 14 -9 10 -5 -3 -13 0 -17 6 -4 7 -3 10 2 6 5 -3 14 5 20 17
9 20 8 22 -36 22 -25 0 -58 4 -73 8 -24 6 -30 3 -34 -14 -4 -14 -12 -20 -27
-18 -11 1 -27 -1 -33 -5 -7 -5 -13 -4 -13 2 0 6 -7 8 -15 5 -8 -4 -15 -1 -15
5 0 6 -4 11 -10 11 -19 0 -10 -21 12 -29 l22 -8 -23 -6 c-13 -3 -20 -3 -17 0
3 4 1 12 -5 19 -15 18 -3 64 16 64 9 0 15 -9 15 -21 0 -12 5 -19 13 -16 6 2
12 14 11 26 0 11 3 21 7 21 4 0 5 9 2 21 -3 11 -9 17 -12 12 -11 -15 -51 -15
-51 1 0 10 -10 14 -37 12 -21 -2 -44 2 -50 7 -13 10 -17 0 -14 -33 1 -12 0
-12 -7 -2 -6 9 -14 1 -27 -28 -10 -22 -20 -38 -22 -36 -5 4 11 40 107 241 85
178 177 340 303 533 55 84 97 156 93 160 -4 3 -10 2 -14 -4 -138 -207 -188
-285 -230 -359 -28 -49 -56 -97 -61 -105 -16 -23 4 32 29 81 12 22 19 43 17
45 -9 9 -231 -447 -294 -604 -14 -35 -27 -61 -30 -59 -4 5 35 115 47 132 17
24 19 45 5 45 -9 0 -12 -6 -9 -17 5 -14 4 -15 -4 -4 -8 11 -12 10 -21 -6 -5
-11 -7 -23 -4 -27 3 -3 2 -6 -4 -6 -6 0 -29 -29 -52 -65 -24 -36 -92 -116
-153 -178 l-110 -112 101 108 c55 60 125 145 155 190 74 112 273 460 350 615
150 299 404 632 606 795 58 47 260 186 298 206 37 20 25 6 -35 -40 -131 -98
-527 -509 -490 -509 7 0 38 30 68 68 125 156 527 531 569 532 8 0 34 13 57 29
23 15 74 37 113 47 67 17 86 35 44 42 -10 2 -26 12 -34 23 -9 11 -42 31 -75
45 -44 18 -51 23 -25 18 19 -3 47 -13 62 -20 37 -19 44 -17 24 5 -54 60 -279
101 -447 82 -101 -12 -217 -40 -289 -71 -25 -10 -85 -35 -135 -55 -49 -20 -95
-39 -101 -41 -12 -5 -84 51 -84 65 0 12 106 72 198 111 107 46 370 116 484
129 46 5 164 8 263 6 148 -3 199 -8 287 -29z m1718 -7 c0 -5 -5 -7 -11 -3 -8
4 -9 -1 -4 -17 7 -21 6 -22 -9 -10 -12 10 -14 17 -5 27 14 17 29 18 29 3z
m-3710 -24 c0 -2 -7 -5 -15 -9 -9 -3 -15 0 -15 9 0 9 6 12 15 9 8 -4 15 -7 15
-9z m2968 -85 c125 -36 211 -77 267 -125 l40 -35 -35 14 c-54 21 -278 74 -345
81 -33 4 -78 3 -100 -3 -31 -7 -62 -4 -140 14 -106 25 -238 31 -310 14 -73
-17 -48 -2 48 29 188 60 391 64 575 11z m708 16 c3 -21 10 -29 29 -32 8 -1 11
4 8 12 -3 8 -9 12 -13 9 -5 -3 -12 0 -16 6 -5 8 1 10 19 7 15 -3 28 0 31 6 3
6 3 -8 0 -32 -2 -23 0 -50 5 -60 9 -18 -3 -36 -26 -38 -39 -3 -44 -5 -39 -13
3 -5 15 -7 26 -4 31 8 24 -14 -10 -30 -40 -20 -46 -7 -24 54 18 50 18 51 -11
123 -6 13 -4 17 5 14 7 -2 14 -12 16 -22z m94 -16 c0 -5 -4 -10 -10 -10 -5 0
-10 5 -10 10 0 6 5 10 10 10 6 0 10 -4 10 -10z m-10 -41 c0 -5 -4 -9 -10 -9
-5 0 -10 7 -10 16 0 8 5 12 10 9 6 -3 10 -10 10 -16z m-2620 -53 c-91 -31
-140 -52 -140 -61 0 -2 33 7 73 21 207 71 442 88 614 45 51 -12 103 -31 115
-41 23 -19 23 -19 -47 -20 -108 0 -239 -18 -308 -41 -93 -32 -236 -101 -308
-149 -132 -89 -381 -300 -355 -300 5 0 40 26 79 57 92 74 282 189 355 214 63
22 199 51 186 40 -5 -4 -38 -30 -74 -58 -214 -167 -527 -574 -715 -928 -91
-172 -348 -595 -362 -595 -2 0 4 15 16 33 49 80 57 107 29 107 -5 0 -8 -7 -5
-15 4 -8 2 -17 -3 -20 -6 -4 -10 4 -10 15 0 13 -8 24 -20 27 -11 3 -18 9 -15
13 3 4 -9 10 -25 14 -17 3 -29 11 -28 17 2 6 -7 13 -20 15 -16 3 -21 0 -16 -8
4 -7 3 -8 -4 -4 -8 5 -9 13 -3 25 8 14 6 17 -11 16 -18 -1 -27 -17 -49 -81
-15 -43 -28 -73 -28 -67 -1 7 15 61 35 120 126 374 271 649 465 883 179 216
170 215 -23 -2 -217 -244 -336 -457 -474 -843 -45 -125 -57 -144 -25 -38 18
59 18 62 1 91 -10 17 -16 33 -13 36 4 3 2 6 -4 6 -6 0 -27 16 -46 35 -33 33
-35 33 -40 14 -5 -17 -2 -20 13 -16 20 5 30 -9 23 -30 -4 -9 -9 -9 -23 0 -21
13 -29 8 -34 -19 -3 -11 -9 -30 -15 -44 -11 -24 -11 -24 -6 5 20 106 94 293
177 452 49 96 88 176 86 179 -3 2 -25 -22 -51 -53 -66 -84 -274 -352 -291
-377 -23 -32 98 233 146 322 62 114 111 184 216 307 134 156 139 164 34 56
-51 -53 -97 -95 -101 -94 -5 1 -19 -10 -32 -25 -22 -25 -22 -26 -1 -8 12 11
22 16 22 13 0 -13 -129 -173 -186 -232 -76 -77 -145 -159 -224 -265 -35 -47
-68 -89 -74 -95 -13 -13 21 42 50 82 29 38 29 39 3 39 -21 0 -70 -61 -164
-204 -27 -40 -50 -70 -53 -68 -5 6 81 150 170 284 110 164 329 408 556 616 34
32 62 61 62 66 0 15 153 148 260 226 189 137 401 251 550 297 180 55 239 64
90 13z m1532 0 c205 -52 423 -155 563 -266 78 -62 81 -80 4 -20 -69 52 -256
147 -381 194 -163 60 -159 55 80 -116 83 -60 152 -111 152 -112 0 -2 -55 -3
-122 -3 -68 1 -158 -2 -200 -7 l-76 -9 -57 62 c-32 33 -76 76 -99 94 l-41 32
40 -50 39 -50 -45 41 c-101 94 -240 184 -284 184 -24 0 -17 17 13 29 104 42
240 41 414 -3z m-457 4 c-3 -5 -12 -10 -18 -10 -7 0 -6 4 3 10 19 12 23 12 15
0z m-2073 -60 c32 -15 35 -30 43 -196 7 -151 0 -149 -44 14 -33 126 -59 175
-99 191 -23 10 -20 11 23 7 28 -3 63 -10 77 -16z m3618 -29 c5 -11 10 -27 10
-36 0 -9 11 -26 25 -39 13 -13 21 -27 17 -31 -4 -5 -1 -5 6 -1 6 4 12 15 12
24 0 13 2 14 9 4 4 -8 11 -13 15 -12 3 0 13 -3 22 -8 14 -8 14 -10 -1 -22 -13
-11 -15 -10 -9 3 4 12 0 15 -15 14 -22 -1 -27 -12 -11 -22 20 -13 9 -24 -20
-20 -37 4 -52 14 -44 27 4 6 10 5 15 -3 7 -11 9 -11 9 2 0 8 -9 25 -20 37 -11
12 -20 30 -20 42 0 11 -4 20 -10 20 -5 0 -10 7 -10 15 0 9 -6 12 -15 9 -12 -5
-13 -10 -4 -20 12 -14 10 -15 -23 -18 -7 -1 -13 4 -13 9 0 6 -4 17 -10 25 -7
13 -6 13 7 2 13 -10 17 -10 22 3 8 21 43 19 56 -4z m-96 -7 c19 -49 -12 -83
-128 -141 -39 -19 -79 -42 -89 -51 -9 -8 -20 -13 -23 -10 -3 3 -19 -7 -37 -23
-17 -16 -36 -29 -41 -29 -11 0 -10 2 57 59 27 23 73 70 104 106 70 82 144 124
157 89z m-1389 -46 c132 -51 333 -224 476 -408 133 -172 276 -403 326 -525 43
-105 42 -125 -2 -39 -19 38 -46 83 -60 99 -22 25 -20 18 13 -50 22 -44 52
-109 67 -145 41 -96 135 -354 126 -344 -5 5 -31 53 -59 106 -28 54 -52 92 -54
86 -5 -14 -129 172 -175 262 -18 36 -32 76 -31 90 2 29 -79 173 -92 165 -6 -3
-7 1 -4 9 4 10 1 16 -7 16 -7 0 -10 3 -6 6 3 3 1 11 -4 18 -5 6 -36 57 -67
114 -135 243 -356 480 -514 552 -34 15 -37 18 -13 13 17 -3 53 -15 80 -25z
m1545 12 c0 -5 -4 -10 -10 -10 -5 0 -10 5 -10 10 0 6 5 10 10 10 6 0 10 -4 10
-10z m-346 -192 c-3 -5 -12 -7 -20 -4 -8 3 -14 2 -14 -3 0 -7 -25 -18 -46 -20
-3 0 -13 -10 -24 -23 -18 -23 -19 -23 -292 -23 -150 0 -290 -4 -310 -9 -53
-12 -49 7 6 28 36 14 86 17 298 18 139 0 264 -3 277 -7 15 -4 21 -3 17 3 -6
11 42 47 51 38 4 -3 13 3 21 15 11 16 17 17 28 8 7 -6 11 -16 8 -21z m259 -14
c1 -4 -8 -9 -20 -10 -22 -4 -22 -3 -5 14 15 16 20 15 25 -4z m-623 -89 c0 -9
6 -12 16 -8 13 5 13 7 2 14 -8 6 0 9 25 9 26 0 36 -4 31 -12 -4 -7 -3 -8 4 -4
6 4 28 9 48 11 26 4 34 2 31 -7 -2 -7 -11 -12 -20 -12 -9 1 -13 -4 -10 -12 7
-18 -15 -44 -31 -38 -7 3 -31 -16 -54 -40 -27 -28 -48 -43 -57 -40 -8 4 -15 8
-15 11 0 3 7 3 15 -1 18 -7 19 -4 1 38 -12 29 -12 34 4 44 10 6 34 8 55 5 29
-5 37 -3 33 7 -5 16 -58 21 -76 7 -7 -6 -12 -6 -11 -1 4 23 -3 34 -21 34 -22
0 -34 -19 -28 -45 2 -13 5 -12 16 6 8 11 9 18 3 14 -6 -3 -11 -1 -11 4 0 12
23 15 33 4 4 -3 0 -17 -9 -31 -13 -19 -14 -30 -5 -48 17 -38 6 -28 -25 24 -27
42 -28 49 -14 64 19 21 70 24 70 3z m-210 -15 c0 -5 -5 -10 -11 -10 -5 0 -7 5
-4 10 3 6 8 10 11 10 2 0 4 -4 4 -10z m610 0 c-8 -5 -19 -10 -25 -10 -5 0 -3
5 5 10 8 5 20 10 25 10 6 0 3 -5 -5 -10z m-623 -40 c-3 -11 -1 -20 4 -20 5 0
9 5 9 12 0 6 3 8 7 4 5 -4 -1 -14 -11 -22 -25 -18 -32 -18 -40 1 -3 8 0 14 7
12 7 -1 11 6 11 16 -1 9 3 17 8 17 6 0 8 -9 5 -20z m358 -19 c-3 -6 -11 -11
-17 -11 -6 0 -6 6 2 15 14 17 26 13 15 -4z m53 4 c-4 -15 -38 -16 -38 -1 0 7
9 13 20 12 11 0 19 -5 18 -11z m62 10 c0 -7 -30 -13 -34 -7 -3 4 4 9 15 9 10
1 19 0 19 -2z m-410 -20 c9 -10 9 -15 1 -15 -6 0 -11 5 -11 11 0 5 -4 7 -10 4
-5 -3 -10 -1 -10 4 0 16 16 13 30 -4z m268 -6 c9 -13 9 -16 -3 -16 -8 0 -15 4
-15 9 0 5 -6 6 -12 2 -9 -5 -8 -2 1 9 8 10 14 16 15 15 1 -2 7 -10 14 -19z
m822 -260 c46 -89 52 -111 14 -54 -15 22 -39 53 -53 70 -14 16 -18 23 -8 16
27 -21 20 2 -18 60 -34 51 -34 52 -6 19 17 -19 49 -69 71 -111z m-101 -223
c41 -85 103 -247 97 -253 -2 -2 -7 6 -11 19 -4 13 -21 56 -37 95 -27 66 -32
72 -50 62 -11 -6 -26 -8 -34 -5 -7 3 -17 0 -21 -7 -10 -15 -64 -40 -71 -33 -2
3 7 10 22 15 32 13 34 22 4 17 -13 -3 -26 -5 -30 -5 -5 -1 -8 -7 -8 -15 0 -22
-36 -43 -70 -41 -20 1 -30 -3 -30 -12 0 -8 -4 -12 -9 -8 -6 3 -15 -3 -21 -12
-11 -17 -11 -17 -6 0 3 11 0 17 -9 17 -9 0 -12 -6 -8 -17 4 -11 3 -14 -5 -9
-15 9 -15 12 3 -54 26 -97 15 -78 -26 45 -22 66 -45 124 -50 130 -5 5 -9 12
-9 16 0 6 122 47 250 84 30 8 62 20 70 25 24 16 28 13 59 -54z m-4046 -96
c-104 -220 -152 -310 -214 -401 -200 -295 -315 -477 -343 -543 -9 -22 -19 -37
-22 -33 -9 8 68 230 121 347 76 171 150 289 301 485 70 90 174 208 180 202 2
-1 -9 -27 -23 -57z m154 8 c-13 -24 -61 -116 -107 -206 -45 -89 -85 -161 -87
-158 -2 2 7 28 21 57 26 53 34 77 16 49 -5 -8 -18 -15 -28 -15 -10 0 -31 -13
-46 -30 l-28 -30 28 41 c46 65 249 334 252 334 2 0 -7 -19 -21 -42z m3544
-139 c17 -61 29 -112 27 -115 -3 -2 -13 25 -22 61 -10 35 -23 63 -28 62 -6 -1
-13 4 -16 12 -3 8 0 11 7 7 7 -5 9 -1 5 8 -7 18 -24 11 -24 -10 0 -9 -11 -14
-30 -14 -22 0 -28 -4 -24 -15 4 -8 1 -15 -6 -15 -6 0 -8 -6 -4 -12 4 -7 -9 2
-28 20 -32 30 -38 32 -57 20 -11 -7 -21 -20 -21 -29 0 -11 -13 -19 -42 -24
-24 -4 -46 -7 -50 -7 -8 2 31 -107 53 -150 8 -16 8 -20 0 -12 -14 13 -77 168
-85 209 -6 30 -5 30 141 103 l147 72 12 -30 c8 -17 27 -80 45 -141z m503 34
c88 -176 224 -590 276 -844 34 -166 80 -452 79 -489 0 -14 -13 34 -29 105 -74
348 -278 1086 -340 1230 -25 59 -17 58 14 -2z m-2047 -473 c62 -207 139 -527
129 -537 -3 -3 -52 1 -111 7 -58 7 -108 11 -111 8 -3 -3 29 -9 70 -13 40 -3
93 -12 117 -19 38 -11 45 -18 51 -47 11 -50 48 -315 48 -342 l0 -24 -67 23
c-99 33 -159 38 -245 21 -77 -16 -185 -62 -228 -97 l-25 -20 55 7 c70 10 286
10 296 1 4 -5 0 -16 -9 -26 -33 -37 -67 -129 -69 -188 -3 -85 10 -154 29 -154
10 0 13 5 8 18 -4 9 -9 35 -13 56 l-5 39 106 -5 106 -6 6 28 c8 35 47 73 71
68 13 -2 21 -16 26 -48 10 -55 17 -146 18 -220 1 -65 12 -53 30 33 6 31 16 57
22 57 6 0 30 -20 53 -45 41 -45 42 -45 60 -26 10 11 21 19 25 16 10 -6 64 54
100 112 22 37 36 50 47 46 13 -5 14 -16 9 -62 -4 -31 -14 -116 -21 -190 -33
-309 -102 -560 -220 -796 -82 -165 -163 -263 -295 -358 -24 -17 -24 -17 10 -1
19 9 57 34 83 55 65 51 240 240 280 302 l32 50 8 -89 c8 -105 6 -115 -67 -237
-83 -138 -94 -148 -226 -197 -63 -24 -169 -68 -235 -97 -66 -30 -141 -63 -167
-73 l-46 -19 -22 117 c-12 64 -32 147 -45 184 -13 36 -22 68 -20 70 1 2 5 19
9 40 6 34 5 36 -15 31 -15 -4 -20 -3 -15 5 10 16 13 17 -152 -28 -280 -76
-322 -73 -449 32 -79 64 -143 113 -243 183 -209 148 -325 282 -380 441 -40
113 -61 245 -71 429 -7 141 -15 207 -38 305 l-29 125 25 38 c14 20 27 37 29
37 1 0 10 -23 19 -51 22 -65 34 -47 21 30 -9 56 -8 62 17 98 72 104 206 226
183 168 -24 -63 -38 -138 -38 -199 1 -92 31 -210 54 -214 16 -3 16 -1 3 32
-15 35 -15 37 8 45 13 5 34 11 48 13 20 2 26 11 34 53 9 44 13 50 37 53 22 3
30 -2 38 -23 5 -14 10 -39 10 -55 0 -16 4 -31 8 -34 5 -3 7 -20 5 -38 -3 -31
-2 -31 8 -10 7 12 15 22 19 22 4 0 10 13 13 28 3 15 39 73 79 129 91 126 253
338 289 380 15 17 42 59 60 93 18 35 35 57 37 51 3 -9 8 -8 20 1 11 9 10 5 -3
-14 -11 -15 -23 -28 -27 -28 -4 0 -5 -8 -2 -17 5 -14 4 -15 -4 -4 -8 11 -12
10 -21 -8 -7 -11 -8 -21 -4 -21 4 0 2 -4 -6 -9 -13 -8 -13 -12 0 -28 13 -16
12 -17 -2 -5 -15 11 -20 8 -38 -22 -56 -90 -179 -430 -221 -610 -29 -126 -25
-125 19 4 43 127 146 378 222 540 125 268 219 430 428 739 117 173 215 321
219 330 7 18 48 -103 149 -439z m1152 285 c0 -5 -18 28 -40 74 -21 46 -39 87
-38 90 1 9 78 -153 78 -164z m246 129 c14 -15 27 -41 29 -58 12 -81 15 -126 7
-126 -7 0 -33 34 -83 109 -21 30 -23 72 -6 89 17 17 26 15 53 -14z m-266 -419
c48 -81 71 -125 67 -125 -2 0 -22 28 -42 63 -50 81 -61 93 -61 62 0 -14 3 -22
8 -19 5 3 6 -1 3 -9 -3 -8 11 -61 31 -117 19 -57 34 -105 32 -107 -8 -8 -98
267 -91 278 4 7 3 9 -3 6 -6 -4 -24 30 -43 83 -18 50 -36 90 -41 90 -15 0 -11
-13 37 -140 25 -67 43 -125 40 -128 -3 -3 -6 0 -6 6 0 7 -7 12 -16 12 -14 0
-15 -7 -10 -42 10 -59 17 -137 10 -113 -3 11 -19 90 -35 175 -26 133 -83 370
-104 435 -4 11 41 -70 100 -180 58 -110 114 -213 124 -230z m566 375 c16 -30
21 -120 7 -120 -15 0 -64 109 -57 130 9 29 32 25 50 -10z m319 -20 c5 -17 4
-20 -2 -10 -5 8 -13 26 -16 40 -5 17 -4 20 2 10 5 -8 13 -26 16 -40z m-386
-65 c0 -16 -2 -15 -8 5 -11 34 -11 60 0 35 5 -11 8 -29 8 -40z m-51 3 c-3 -8
-6 -5 -6 6 -1 11 2 17 5 13 3 -3 4 -12 1 -19z m-380 -125 c-3 -2 -12 15 -22
39 -28 69 -27 78 0 19 14 -29 24 -55 22 -58z m390 85 c-3 -8 -6 -5 -6 6 -1 11
2 17 5 13 3 -3 4 -12 1 -19z m50 -10 c-3 -8 -6 -5 -6 6 -1 11 2 17 5 13 3 -3
4 -12 1 -19z m410 0 c-3 -8 -6 -5 -6 6 -1 11 2 17 5 13 3 -3 4 -12 1 -19z
m-4307 -2 c0 -2 -8 -10 -17 -17 -16 -13 -17 -12 -4 4 13 16 21 21 21 13z
m3857 -28 c-3 -8 -6 -5 -6 6 -1 11 2 17 5 13 3 -3 4 -12 1 -19z m-2497 -177
c-44 -55 -88 -105 -97 -113 -10 -7 25 38 76 100 51 61 95 112 97 112 3 0 -31
-45 -76 -99z m-1110 83 c0 -8 -19 -13 -24 -6 -3 5 1 9 9 9 8 0 15 -2 15 -3z
m3255 -74 c14 -40 25 -78 24 -84 0 -10 -35 82 -54 146 -17 55 7 5 30 -62z
m-3408 28 c-3 -8 -6 -5 -6 6 -1 11 2 17 5 13 3 -3 4 -12 1 -19z m250 -60 c-3
-8 -6 -5 -6 6 -1 11 2 17 5 13 3 -3 4 -12 1 -19z m113 -44 c0 -8 -4 -12 -10
-9 -5 3 -10 10 -10 16 0 5 5 9 10 9 6 0 10 -7 10 -16z m-233 -26 c-3 -8 -6 -5
-6 6 -1 11 2 17 5 13 3 -3 4 -12 1 -19z m-10 -40 c-3 -8 -6 -5 -6 6 -1 11 2
17 5 13 3 -3 4 -12 1 -19z m3700 0 c-3 -8 -6 -5 -6 6 -1 11 2 17 5 13 3 -3 4
-12 1 -19z m-358 -38 c0 -9 -4 -8 -9 5 -5 11 -9 27 -9 35 0 9 4 8 9 -5 5 -11
9 -27 9 -35z m-2849 36 c0 -3 -4 -8 -10 -11 -5 -3 -10 -1 -10 4 0 6 5 11 10
11 6 0 10 -2 10 -4z m540 1 c0 -2 -12 -14 -27 -28 l-28 -24 24 28 c23 25 31
32 31 24z m79 -128 c-55 -126 -172 -420 -215 -538 -19 -52 -36 -97 -38 -99 -3
-2 -10 6 -16 18 -8 15 -8 20 -1 16 36 -23 -23 73 -104 169 l-57 67 233 234
c128 128 234 232 236 230 2 -1 -15 -45 -38 -97z m2238 49 c-3 -8 -6 -5 -6 6
-1 11 2 17 5 13 3 -3 4 -12 1 -19z m-3124 -19 c-10 -17 -65 -80 -123 -139 -77
-79 -82 -83 -20 -16 47 50 101 112 119 139 39 54 51 62 24 16z m2774 -36 c-3
-10 -5 -4 -5 12 0 17 2 24 5 18 2 -7 2 -21 0 -30z m44 -16 c-13 -13 -15 11 -4
40 7 16 8 15 11 -6 2 -13 -1 -28 -7 -34z m327 -12 c0 -16 -2 -15 -8 5 -4 14
-8 34 -8 45 0 16 2 15 8 -5 4 -14 8 -34 8 -45z m-271 3 c-3 -7 -5 -2 -5 12 0
14 2 19 5 13 2 -7 2 -19 0 -25z m-2786 -25 c-12 -20 -14 -14 -5 12 4 9 9 14
11 11 3 -2 0 -13 -6 -23z m2696 -15 c-3 -7 -5 -2 -5 12 0 14 2 19 5 13 2 -7 2
-19 0 -25z m53 -10 c0 -16 -3 -19 -11 -11 -6 6 -8 16 -5 22 11 17 16 13 16
-11z m47 0 c-3 -8 -6 -5 -6 6 -1 11 2 17 5 13 3 -3 4 -12 1 -19z m270 -10 c-3
-7 -5 -2 -5 12 0 14 2 19 5 13 2 -7 2 -19 0 -25z m-3086 -15 c-12 -20 -14 -14
-5 12 4 9 9 14 11 11 3 -2 0 -13 -6 -23z m-638 -37 c-3 -21 -10 -33 -15 -28
-5 5 -3 22 3 41 14 41 20 35 12 -13z m1035 1 l31 -24 -37 -34 -37 -34 30 33
30 34 -30 24 c-38 31 -29 31 13 1z m549 15 c7 -4 10 -16 8 -27 -2 -11 -4 -23
-4 -27 -1 -12 -31 -9 -31 3 0 5 4 8 9 4 5 -3 13 0 17 6 5 9 -3 11 -28 6 -30
-4 -37 -2 -41 14 -5 20 7 26 18 9 3 -5 12 -7 20 -4 8 4 12 10 9 15 -6 11 7 12
23 1z m2157 -27 c5 -22 4 -26 -4 -15 -5 8 -10 24 -10 34 0 26 6 18 14 -19z
m-3133 -22 c-11 -21 -20 -35 -21 -31 0 12 33 78 38 74 2 -2 -6 -21 -17 -43z
m2276 25 c-3 -8 -6 -5 -6 6 -1 11 2 17 5 13 3 -3 4 -12 1 -19z m-210 -55 c-3
-10 -5 -4 -5 12 0 17 2 24 5 18 2 -7 2 -21 0 -30z m-2687 -1 c0 -15 -2 -15
-10 -2 -13 20 -13 33 0 25 6 -3 10 -14 10 -23z m2907 6 c-3 -8 -6 -5 -6 6 -1
11 2 17 5 13 3 -3 4 -12 1 -19z m-83 -68 c5 -20 3 -19 -8 5 -7 17 -16 41 -20
55 -5 20 -3 19 8 -5 7 -16 16 -41 20 -55z m93 28 c-3 -8 -6 -5 -6 6 -1 11 2
17 5 13 3 -3 4 -12 1 -19z m-2327 -1 c0 -2 -10 -12 -22 -23 l-23 -19 19 23
c18 21 26 27 26 19z m420 -1 c0 -2 -8 -10 -17 -17 -16 -13 -17 -12 -4 4 13 16
21 21 21 13z m1687 -73 c-2 -16 -4 -3 -4 27 0 30 2 43 4 28 2 -16 2 -40 0 -55z
m-2387 63 c0 -2 -8 -10 -17 -17 -16 -13 -17 -12 -4 4 13 16 21 21 21 13z
m2617 -28 c-3 -8 -6 -5 -6 6 -1 11 2 17 5 13 3 -3 4 -12 1 -19z m-2577 8 c0
-2 -8 -10 -17 -17 -16 -13 -17 -12 -4 4 13 16 21 21 21 13z m190 -10 c0 -2 -8
-10 -17 -17 -16 -13 -17 -12 -4 4 13 16 21 21 21 13z m-583 -28 c-3 -8 -6 -5
-6 6 -1 11 2 17 5 13 3 -3 4 -12 1 -19z m1013 18 c0 -2 -8 -10 -17 -17 -16
-13 -17 -12 -4 4 13 16 21 21 21 13z m1967 -28 c-3 -8 -6 -5 -6 6 -1 11 2 17
5 13 3 -3 4 -12 1 -19z m-2990 -40 c-3 -7 -5 -2 -5 12 0 14 2 19 5 13 2 -7 2
-19 0 -25z m1650 2 c1 -11 -3 -20 -9 -20 -6 0 -9 -3 -5 -6 3 -4 0 -13 -8 -20
-24 -24 -27 -15 -5 16 12 17 19 30 15 30 -3 0 -3 5 0 10 9 14 11 13 12 -10z
m990 -42 c-3 -7 -5 -2 -5 12 0 14 2 19 5 13 2 -7 2 -19 0 -25z m366 -347 c16
-38 47 -191 47 -240 0 -20 -21 -9 -147 76 l-113 76 0 236 0 235 97 -170 c53
-93 105 -189 116 -213z m-3016 347 c-3 -8 -6 -5 -6 6 -1 11 2 17 5 13 3 -3 4
-12 1 -19z m1384 -35 c-12 -20 -14 -14 -5 12 4 9 9 14 11 11 3 -2 0 -13 -6
-23z m2426 -65 c-2 -18 -4 -4 -4 32 0 36 2 50 4 33 2 -18 2 -48 0 -65z m-3820
50 c-3 -7 -5 -2 -5 12 0 14 2 19 5 13 2 -7 2 -19 0 -25z m3036 12 c-3 -12 -8
-19 -11 -16 -5 6 5 36 12 36 2 0 2 -9 -1 -20z m-3006 -22 c-3 -7 -5 -2 -5 12
0 14 2 19 5 13 2 -7 2 -19 0 -25z m-40 -30 c-3 -8 -6 -5 -6 6 -1 11 2 17 5 13
3 -3 4 -12 1 -19z m1633 18 c0 -3 -4 -8 -10 -11 -5 -3 -10 -1 -10 4 0 6 5 11
10 11 6 0 10 -2 10 -4z m-1603 -58 c-3 -7 -5 -2 -5 12 0 14 2 19 5 13 2 -7 2
-19 0 -25z m1334 -5 c-12 -20 -14 -14 -5 12 4 9 9 14 11 11 3 -2 0 -13 -6 -23z
m3473 -98 c16 -123 10 -269 -18 -435 -19 -106 -74 -318 -86 -325 -4 -3 -8 80
-8 183 0 193 5 242 64 560 13 73 24 136 25 140 2 18 9 -22 23 -123z m-4847 93
c-3 -8 -6 -5 -6 6 -1 11 2 17 5 13 3 -3 4 -12 1 -19z m3840 -131 c-2 -23 -3
-1 -3 48 0 50 1 68 3 42 2 -26 2 -67 0 -90z m30 91 c-3 -8 -6 -5 -6 6 -1 11 2
17 5 13 3 -3 4 -12 1 -19z m-3840 -10 c-3 -8 -6 -5 -6 6 -1 11 2 17 5 13 3 -3
4 -12 1 -19z m3840 -85 c-2 -16 -4 -5 -4 22 0 28 2 40 4 28 2 -13 2 -35 0 -50z
m-3850 5 c-3 -7 -5 -2 -5 12 0 14 2 19 5 13 2 -7 2 -19 0 -25z m3108 -88 c14
-62 23 -115 21 -118 -6 -5 -22 54 -41 153 -17 90 -17 90 -10 83 3 -2 16 -56
30 -118z m-3158 68 c-3 -8 -6 -5 -6 6 -1 11 2 17 5 13 3 -3 4 -12 1 -19z
m1384 5 c13 -16 12 -17 -3 -4 -17 13 -22 21 -14 21 2 0 10 -8 17 -17z m2649
-90 l85 -88 -86 80 c-74 69 -98 95 -86 95 1 0 41 -39 87 -87z m-2693 55 c-3
-8 -6 -5 -6 6 -1 11 2 17 5 13 3 -3 4 -12 1 -19z m-1350 -30 c-3 -7 -5 -2 -5
12 0 14 2 19 5 13 2 -7 2 -19 0 -25z m3900 -15 c-3 -10 -5 -4 -5 12 0 17 2 24
5 18 2 -7 2 -21 0 -30z m-1480 21 c-3 -3 -12 -4 -19 -1 -8 3 -5 6 6 6 11 1 17
-2 13 -5z m-2430 -81 c-3 -10 -5 -2 -5 17 0 19 2 27 5 18 2 -10 2 -26 0 -35z
m3900 -25 c-2 -13 -4 -5 -4 17 -1 22 1 32 4 23 2 -10 2 -28 0 -40z m-3850 10
c-3 -8 -6 -5 -6 6 -1 11 2 17 5 13 3 -3 4 -12 1 -19z m-60 -65 c-3 -10 -5 -4
-5 12 0 17 2 24 5 18 2 -7 2 -21 0 -30z m248 -85 c19 -253 102 -611 188 -815
l35 -82 -27 -24 c-14 -13 -42 -36 -61 -50 l-35 -26 -39 30 c-117 87 -206 284
-235 524 -15 124 -23 231 -17 225 3 -3 16 -54 31 -114 27 -114 70 -209 113
-248 23 -21 24 -21 17 -3 -78 204 -86 372 -25 568 18 59 36 107 40 107 4 0 11
-42 15 -92z m-198 20 c-3 -8 -6 -5 -6 6 -1 11 2 17 5 13 3 -3 4 -12 1 -19z
m-60 -70 c-2 -13 -4 -3 -4 22 0 25 2 35 4 23 2 -13 2 -33 0 -45z m3868 -43
c-3 -26 -8 -45 -11 -43 -2 3 -1 26 2 52 4 25 9 44 12 42 2 -3 1 -26 -3 -51z
m-3808 -107 c-3 -8 -6 -5 -6 6 -1 11 2 17 5 13 3 -3 4 -12 1 -19z m3290 -10
c-3 -8 -6 -5 -6 6 -1 11 2 17 5 13 3 -3 4 -12 1 -19z m452 -18 c23 -11 47 -33
55 -48 27 -53 56 -165 56 -218 0 -105 -23 -132 -222 -265 -104 -70 -120 -78
-115 -57 16 64 77 453 83 528 3 47 8 88 10 91 6 11 91 -9 133 -31z m-2959 -57
c-11 -17 -11 -17 -6 0 3 10 6 24 7 30 0 9 2 9 5 0 3 -7 0 -20 -6 -30z m-843
-25 c-2 -13 -4 -5 -4 17 -1 22 1 32 4 23 2 -10 2 -28 0 -40z m3380 -10 c-3 -8
-6 -5 -6 6 -1 11 2 17 5 13 3 -3 4 -12 1 -19z m10 -40 c-3 -8 -6 -5 -6 6 -1
11 2 17 5 13 3 -3 4 -12 1 -19z m-3380 -40 c-3 -7 -5 -2 -5 12 0 14 2 19 5 13
2 -7 2 -19 0 -25z m624 -5 c13 -21 35 -54 51 -73 15 -19 28 -45 28 -57 0 -40
-93 -253 -111 -253 -10 0 -12 214 -2 338 3 45 7 82 9 82 1 0 13 -17 25 -37z
m228 -40 c-1 -41 -2 -44 -8 -18 -7 28 -4 65 5 65 2 0 3 -21 3 -47z m-842 -15
c-3 -7 -5 -2 -5 12 0 14 2 19 5 13 2 -7 2 -19 0 -25z m10 -40 c-3 -8 -6 -5 -6
6 -1 11 2 17 5 13 3 -3 4 -12 1 -19z m4589 -145 c-19 -209 -58 -519 -70 -548
-12 -27 -23 -34 -73 -48 -33 -10 -69 -17 -80 -17 -21 0 -162 55 -175 68 -4 4
16 26 45 48 29 22 76 71 104 108 53 72 185 312 224 409 12 31 25 57 27 57 2 0
1 -35 -2 -77z m-1384 -136 c-6 -48 -14 -52 -42 -22 l-22 24 28 83 29 83 6 -65
c4 -36 4 -82 1 -103z m-3063 -32 c24 -54 17 -52 -17 6 -12 20 -19 39 -15 42 8
9 6 11 32 -48z m4225 -117 c-61 -105 -153 -212 -203 -238 -34 -17 -55 -15 -80
7 -7 6 48 53 151 131 51 38 102 79 112 91 21 23 31 28 20 9z m-1261 -30 c18
-12 33 -22 35 -24 2 -1 -19 -45 -45 -98 -40 -82 -49 -93 -55 -74 -12 46 -8
158 7 188 19 36 19 36 58 8z m-2113 -215 c11 -62 32 -151 46 -199 13 -48 23
-88 21 -91 -6 -6 -106 151 -127 201 -35 79 -36 112 -4 178 34 71 34 70 64 -89z
m2581 -27 c30 -13 79 -31 109 -40 96 -28 131 -77 89 -122 -18 -19 -19 -23 -6
-18 9 3 17 11 17 17 0 7 3 8 10 1 13 -13 18 -112 7 -141 -6 -16 -2 -27 15 -42
l22 -21 -22 -16 c-27 -19 -28 -40 -3 -54 24 -12 20 -54 -20 -199 -16 -57 -34
-154 -40 -215 -7 -80 -17 -124 -33 -156 -21 -42 -29 -47 -106 -77 -46 -18 -84
-32 -86 -30 -1 1 -23 43 -49 92 -27 50 -59 105 -72 122 -24 33 -38 78 -95 300
l-31 121 53 134 c29 73 68 177 85 231 18 53 35 100 38 103 11 11 19 -194 14
-364 -5 -193 -18 -258 -63 -312 l-26 -30 29 0 c93 0 131 148 119 465 -3 94 -9
194 -12 223 -4 28 -4 52 -2 52 3 0 30 -11 59 -24z m-3256 -103 c-10 -14 -19
-44 -20 -65 -3 -53 -55 -126 -182 -256 -103 -105 -147 -132 -81 -50 19 24 54
72 78 108 50 76 211 290 218 290 2 0 -4 -12 -13 -27z m530 -25 c23 -110 123
-242 241 -318 l65 -43 -43 -44 c-115 -119 -280 -204 -632 -327 -190 -67 -273
-84 -460 -95 -127 -8 -160 -6 -234 9 -148 31 -347 81 -356 90 -9 9 111 93 189
132 28 14 95 42 150 63 55 20 142 55 192 77 113 48 159 62 293 88 165 33 283
80 378 149 39 29 192 222 192 243 0 22 19 4 25 -24z m1313 -151 c51 -144 60
-180 64 -246 l3 -53 -74 -29 c-88 -34 -111 -53 -111 -90 0 -15 -4 -39 -10 -53
l-9 -26 -263 5 c-145 2 -275 7 -290 10 -37 10 -41 40 -15 107 22 57 22 57 77
68 131 27 197 56 343 152 86 57 189 164 213 221 10 26 22 47 25 47 4 0 25 -51
47 -113z m616 -134 c-76 -93 -265 -293 -336 -355 -39 -35 -105 -93 -146 -130
-41 -38 -78 -68 -82 -68 -4 0 -58 -29 -121 -64 -63 -36 -115 -64 -115 -63 -1
1 11 54 27 117 16 63 28 122 26 130 -4 19 -42 -104 -58 -187 -6 -34 -19 -69
-28 -77 -12 -11 -55 -17 -163 -22 l-146 -7 -17 34 c-18 34 -154 207 -180 229
-8 7 -19 9 -25 5 -13 -8 19 -65 36 -65 32 0 134 -157 134 -205 0 -8 -11 -22
-24 -30 -31 -20 -99 -118 -101 -145 -2 -24 -83 -110 -103 -110 -7 0 -27 -7
-44 -16 l-31 -16 6 28 c4 16 20 79 36 140 16 61 34 162 41 225 12 115 31 201
57 252 13 26 17 28 56 22 37 -5 425 -26 514 -28 49 -1 83 35 83 88 0 52 16 68
107 103 37 15 99 45 137 66 38 22 156 72 262 112 107 40 202 78 212 83 30 17
26 3 -14 -46z m-984 -28 c0 -5 -88 -51 -128 -66 -44 -17 -18 0 54 36 80 39 74
36 74 30z m-170 -85 c-20 -13 -33 -13 -25 0 3 6 14 10 23 10 15 0 15 -2 2 -10z
m1672 -150 c16 -58 35 -123 41 -146 7 -23 17 -47 23 -55 6 -8 26 -41 44 -74
l33 -60 -74 71 c-80 78 -109 97 -132 88 -9 -3 -30 3 -49 13 -18 10 -43 20 -54
23 -20 5 -16 14 55 146 53 98 77 135 79 120 2 -11 17 -68 34 -126z m-1722 130
c-8 -5 -22 -9 -30 -9 -10 0 -8 3 5 9 27 12 43 12 25 0z m-83 -26 c-3 -3 -12
-4 -19 -1 -8 3 -5 6 6 6 11 1 17 -2 13 -5z m-75 -47 c4 14 7 12 13 -10 13 -46
-8 -48 -39 -4 -27 40 -28 41 -3 19 23 -22 26 -22 29 -5z m1650 -118 l-38 -94
-90 -35 c-98 -38 -184 -95 -291 -192 -106 -97 -164 -143 -209 -166 -22 -11
-63 -39 -91 -61 l-51 -40 -7 37 c-3 20 -8 45 -11 54 -10 35 271 246 485 362
118 65 226 137 291 194 25 22 46 39 48 37 1 -1 -15 -44 -36 -96z m-1710 -31
c-4 -4 -31 0 -60 8 -59 17 -61 22 -15 26 l31 2 -20 31 c-17 24 -11 21 25 -15
26 -24 44 -47 39 -52z m-2132 58 c0 -2 -26 -19 -57 -36 -32 -18 -69 -40 -83
-48 -14 -9 -20 -11 -15 -5 12 14 137 92 148 92 4 1 7 -1 7 -3z m2003 -149 c20
-7 37 -14 37 -17 0 -3 -13 -20 -29 -39 l-28 -34 -41 44 c-22 24 -38 46 -36 48
2 3 10 -1 16 -7 7 -7 16 -12 20 -12 11 0 6 23 -7 33 -6 5 -1 6 10 2 11 -3 37
-12 58 -18z m137 19 c0 -3 -4 -8 -10 -11 -5 -3 -10 -1 -10 4 0 6 5 11 10 11 6
0 10 -2 10 -4z m3115 -64 c141 -49 453 -227 507 -288 29 -33 78 -201 78 -266
l0 -21 -22 20 c-42 38 -331 216 -468 288 -116 60 -138 75 -157 110 -34 60 -75
173 -68 185 7 12 34 6 130 -28z m-3132 20 c5 -6 -12 -112 -19 -121 -4 -5 -94
33 -94 40 0 3 16 24 36 47 33 39 66 53 77 34z m1636 -44 c-76 -152 -208 -310
-339 -407 -69 -51 -266 -159 -274 -150 -2 2 27 58 63 124 61 112 74 129 204
255 143 139 202 184 217 160 5 -8 10 -9 14 -2 4 6 12 9 19 7 7 -2 35 11 62 29
28 18 51 32 53 31 2 -2 -6 -23 -19 -47z m-1949 -3 c0 -2 -10 -9 -22 -15 -22
-11 -22 -10 -4 4 21 17 26 19 26 11z m-50 -29 c0 -2 -8 -10 -17 -17 -16 -13
-17 -12 -4 4 13 16 21 21 21 13z m170 -29 c47 -13 95 -29 108 -36 43 -23 15
-91 -38 -91 -52 0 -197 50 -212 73 -16 25 -97 -119 -120 -211 -6 -26 -15 -58
-19 -72 -8 -23 -9 -22 -4 5 l5 30 -15 -28 c-9 -15 -13 -33 -9 -39 5 -7 3 -8
-6 -3 -10 6 -12 4 -7 -9 5 -11 3 -15 -5 -10 -8 5 -9 1 -4 -12 4 -10 4 -15 0
-11 -4 4 -26 -26 -49 -66 -56 -96 -142 -238 -155 -257 -5 -8 40 86 100 210
111 227 120 258 22 81 -80 -144 -52 -68 40 108 122 235 168 305 225 342 36 24
41 24 143 -4z m3170 -153 c0 -63 -4 -114 -9 -114 -16 0 -49 239 -36 261 6 9
13 6 27 -10 15 -20 18 -41 18 -137z m-3380 132 c0 -2 -8 -10 -17 -17 -16 -13
-17 -12 -4 4 13 16 21 21 21 13z m-475 -54 c-6 -5 -49 -37 -98 -71 -106 -76
-234 -196 -302 -284 -31 -40 -69 -75 -100 -92 -134 -77 -323 -214 -422 -308
l-42 -40 6 39 c10 65 53 194 94 280 84 178 204 291 429 405 62 31 98 42 162
50 46 5 106 13 133 18 67 12 151 13 140 3z m1345 -107 c0 -2 -44 -30 -97 -61
-54 -32 -124 -75 -155 -96 l-58 -39 0 40 c0 33 8 48 51 95 l50 55 102 4 c56 1
103 4 105 5 1 1 2 0 2 -3z m2790 -53 c79 -41 327 -194 399 -247 34 -25 61 -52
61 -60 0 -30 -527 250 -555 294 -8 13 12 41 29 41 6 0 36 -13 66 -28z m-2340
-46 c0 -6 -26 -24 -57 -39 l-58 -28 48 46 c44 43 67 50 67 21z m150 -43 c-16
-38 -39 -95 -53 -128 l-24 -60 -74 -17 c-41 -10 -121 -21 -178 -25 l-103 -6
12 24 c7 13 31 47 52 75 35 47 46 54 111 74 40 13 83 29 96 38 23 14 24 13 18
-7 -3 -11 -3 -21 -1 -21 2 0 41 27 86 60 45 33 83 60 84 60 1 0 -10 -30 -26
-67z m1185 -120 c4 -32 18 -108 31 -170 25 -111 25 -112 7 -179 l-18 -66 -97
-49 c-53 -27 -156 -82 -228 -124 -73 -42 -134 -75 -135 -73 -6 6 65 169 132
303 130 257 167 316 230 367 32 26 61 47 65 48 4 0 10 -26 13 -57z m-3016
-227 c-2 -2 -31 -17 -64 -34 -75 -37 -217 -150 -208 -164 3 -6 1 -8 -5 -4 -11
7 -126 -93 -117 -102 3 -3 26 14 50 38 25 24 45 42 45 39 0 -2 -25 -29 -56
-59 -30 -30 -52 -47 -48 -37 3 9 2 17 -3 17 -6 0 -5 24 1 61 14 75 41 102 141
143 39 16 113 48 165 72 52 24 96 41 99 39 2 -3 2 -7 0 -9z m3868 -250 c-8
-57 -34 -86 -123 -133 -92 -49 -159 -69 -197 -59 l-27 6 53 63 c29 34 74 96
101 138 l48 77 75 -27 75 -26 -5 -39z m153 -11 c0 -1 -13 -2 -30 -1 -16 1 -30
6 -30 13 0 9 8 9 30 2 17 -6 30 -12 30 -14z m-35 -35 c-4 -6 -10 -8 -15 -5
-11 7 -42 -73 -34 -87 4 -6 2 -8 -3 -5 -16 10 -24 -18 -10 -32 9 -9 8 -11 -5
-6 -11 4 -20 -1 -28 -14 -10 -20 -8 -21 33 -21 23 0 49 6 55 12 10 10 14 10
21 0 4 -7 14 -10 22 -8 8 3 80 8 160 10 80 3 152 8 161 11 9 4 18 2 22 -3 6
-11 -253 -32 -395 -32 l-105 0 45 94 c32 67 51 95 64 95 10 1 15 -4 12 -9z
m70 -21 c22 -10 29 -16 15 -13 -28 7 -80 33 -65 33 6 0 28 -9 50 -20z m-62
-29 c-3 -12 -8 -19 -11 -16 -5 6 5 36 12 36 2 0 2 -9 -1 -20z m-1067 -58 c-13
-26 -32 -57 -42 -69 -17 -19 -172 -78 -182 -69 -2 3 21 12 52 22 38 12 53 21
46 28 -5 5 -10 14 -10 19 0 5 7 2 15 -7 29 -28 68 -3 100 64 16 33 32 60 37
60 5 0 -3 -21 -16 -48z m1289 31 c16 -4 36 -12 43 -20 17 -16 14 -16 -38 2
-23 8 -47 12 -53 8 -5 -3 -7 -1 -3 5 3 5 3 12 -1 15 -5 2 -1 2 7 0 8 -3 28 -7
45 -10z m-1330 -3 c-3 -5 -12 -10 -18 -10 -7 0 -6 4 3 10 19 12 23 12 15 0z
m1105 -35 c0 -2 -9 -3 -19 -2 -11 0 -18 5 -15 9 4 6 34 0 34 -7z m30 -18 c0
-5 -4 -5 -10 -2 -5 3 -10 14 -10 23 0 15 2 15 10 2 5 -8 10 -19 10 -23z
m-1300 -37 c0 -5 -5 -10 -11 -10 -5 0 -7 5 -4 10 3 6 8 10 11 10 2 0 4 -4 4
-10z"/>
<path d="M5441 6592 c-1 -7 -5 -11 -10 -8 -4 3 -8 -8 -7 -25 1 -20 6 -29 16
-27 8 2 15 8 15 15 0 6 3 15 8 19 10 10 9 26 -2 20 -5 -4 -12 0 -14 6 -4 10
-6 10 -6 0z"/>
<path d="M4350 5116 c0 -2 8 -10 18 -17 15 -13 16 -12 3 4 -13 16 -21 21 -21
13z"/>
<path d="M2068 4603 c7 -3 16 -2 19 1 4 3 -2 6 -13 5 -11 0 -14 -3 -6 -6z"/>
<path d="M4451 4548 c-1 -10 -5 -18 -11 -18 -5 0 -10 -5 -10 -12 0 -8 6 -7 16
4 9 9 14 22 11 30 -4 9 -6 7 -6 -4z"/>
<path d="M4701 4504 c0 -11 3 -14 6 -6 3 7 2 16 -1 19 -3 4 -6 -2 -5 -13z"/>
<path d="M4180 4449 c0 -5 11 -9 25 -9 33 0 33 15 0 16 -14 1 -25 -2 -25 -7z"/>
<path d="M2510 4430 c0 -5 5 -10 11 -10 5 0 7 5 4 10 -3 6 -8 10 -11 10 -2 0
-4 -4 -4 -10z"/>
<path d="M2816 4372 c-3 -5 1 -9 9 -9 8 0 12 4 9 9 -3 4 -7 8 -9 8 -2 0 -6 -4
-9 -8z"/>
<path d="M2990 4330 c0 -5 5 -10 10 -10 6 0 10 5 10 10 0 6 -4 10 -10 10 -5 0
-10 -4 -10 -10z"/>
<path d="M5376 6331 c21 -35 26 -35 16 0 -4 13 -13 25 -20 27 -10 2 -9 -6 4
-27z"/>
<path d="M1600 5393 c-123 -129 -275 -312 -266 -320 3 -4 13 2 21 13 15 19 15
19 8 -1 -6 -18 -5 -19 11 -6 11 9 13 18 7 24 -13 13 37 80 52 70 6 -3 7 -1 3
5 -7 12 94 132 213 255 36 37 63 67 59 67 -3 0 -52 -48 -108 -107z"/>
<path d="M2169 5433 c-13 -16 -12 -17 4 -4 16 13 21 21 13 21 -2 0 -10 -8 -17
-17z"/>
<path d="M1385 5120 c-3 -5 -2 -10 4 -10 5 0 13 5 16 10 3 6 2 10 -4 10 -5 0
-13 -4 -16 -10z"/>
<path d="M1715 4800 c3 -5 8 -10 11 -10 2 0 4 5 4 10 0 6 -5 10 -11 10 -5 0
-7 -4 -4 -10z"/>
<path d="M4696 5167 c3 -10 9 -15 12 -12 3 3 0 11 -7 18 -10 9 -11 8 -5 -6z"/>
<path d="M4771 4974 c0 -11 3 -14 6 -6 3 7 2 16 -1 19 -3 4 -6 -2 -5 -13z"/>
<path d="M4825 5870 c3 -5 8 -10 11 -10 2 0 4 5 4 10 0 6 -5 10 -11 10 -5 0
-7 -4 -4 -10z"/>
<path d="M4877 5855 c-6 -15 10 -32 20 -21 4 3 1 6 -5 6 -6 0 -9 7 -6 15 4 8
4 15 1 15 -3 0 -7 -7 -10 -15z"/>
<path d="M5563 5345 c0 -8 4 -12 9 -9 5 3 6 10 3 15 -9 13 -12 11 -12 -6z"/>
<path d="M5580 5289 c0 -5 5 -7 10 -4 6 3 10 8 10 11 0 2 -4 4 -10 4 -5 0 -10
-5 -10 -11z"/>
<path d="M5578 5243 c7 -3 16 -2 19 1 4 3 -2 6 -13 5 -11 0 -14 -3 -6 -6z"/>
<path d="M4955 5070 c-3 -5 3 -10 14 -10 12 0 21 5 21 10 0 6 -6 10 -14 10 -8
0 -18 -4 -21 -10z"/>
<path d="M5841 4894 c-1 -12 124 -456 136 -484 3 -8 5 -19 4 -23 -2 -12 59
-240 66 -247 6 -5 -1 42 -12 90 -3 14 -8 39 -11 57 -13 93 -180 646 -183 607z"/>
<path d="M6061 4064 c0 -11 3 -14 6 -6 3 7 2 16 -1 19 -3 4 -6 -2 -5 -13z"/>
<path d="M3518 4123 c18 -2 45 -2 60 0 15 2 0 4 -33 4 -33 0 -45 -2 -27 -4z"/>
<path d="M2476 3446 c-10 -19 -29 -45 -42 -57 l-24 -23 -39 38 c-55 54 -63 27
-8 -30 39 -42 45 -46 66 -34 13 6 34 37 47 67 28 63 28 91 0 39z"/>
<path d="M3691 3153 c6 -10 26 -29 43 -43 l31 -25 -33 43 c-33 41 -64 60 -41
25z"/>
<path d="M2422 3115 c0 -16 2 -22 5 -12 2 9 2 23 0 30 -3 6 -5 -1 -5 -18z"/>
<path d="M2600 2626 c0 -2 7 -7 16 -10 8 -3 12 -2 9 4 -6 10 -25 14 -25 6z"/>
<path d="M3624 2088 l-29 -33 33 29 c30 28 37 36 29 36 -2 0 -16 -15 -33 -32z"/>
<path d="M3310 1473 c-1 -22 65 -205 68 -190 6 30 -16 148 -33 173 -15 23 -35
32 -35 17z"/>
<path d="M3928 1163 c-19 -22 -78 -126 -78 -138 0 -5 18 18 41 51 23 32 50 69
62 82 16 17 17 22 5 22 -8 0 -22 -8 -30 -17z"/>
<path d="M5482 360 c-7 -12 -10 -26 -6 -32 4 -6 3 -8 -3 -5 -6 4 -23 -12 -38
-36 -16 -23 -48 -68 -72 -99 -23 -31 -43 -59 -43 -62 0 -19 134 18 169 47 7 6
19 12 27 13 17 3 75 42 92 62 6 9 12 22 12 30 0 8 -5 10 -12 6 -7 -4 -5 2 5
14 25 27 17 37 -49 61 -67 26 -66 26 -82 1z m-2 -164 c0 -2 -6 -9 -14 -15 -11
-9 -16 -9 -22 0 -4 7 -3 9 4 5 6 -3 13 -2 17 4 6 10 15 14 15 6z"/>
<path d="M1706 6984 c-8 -20 20 -23 32 -4 10 16 8 18 -8 17 -11 -1 -22 -7 -24
-13z"/>
<path d="M1817 6969 c13 -26 14 -40 5 -83 -17 -79 -19 -241 -3 -260 8 -9 16
-14 19 -11 3 2 -1 12 -8 21 -12 13 -11 17 1 25 9 6 10 12 4 17 -6 4 -12 18
-12 30 -2 18 2 22 15 17 9 -3 13 -3 10 1 -4 4 -3 16 3 27 7 12 7 17 1 13 -6
-4 -8 3 -4 16 5 20 3 21 -11 10 -14 -12 -16 -11 -14 7 0 11 5 17 9 15 4 -3 8
-1 8 5 0 5 -4 12 -9 15 -4 3 -6 17 -3 31 6 32 42 35 42 4 0 -14 -5 -19 -15
-16 -8 4 -17 2 -20 -3 -4 -6 -2 -10 4 -10 6 0 15 -15 20 -32 l10 -33 -1 30 c0
17 4 43 11 58 16 41 14 48 -14 41 -19 -5 -25 -2 -25 11 0 12 6 16 18 13 14 -4
17 2 17 34 0 25 -4 38 -13 38 -7 0 -11 -4 -8 -9 3 -5 -1 -12 -9 -15 -9 -3 -18
1 -21 9 -4 8 -10 15 -14 15 -5 0 -1 -14 7 -31z"/>
<path d="M1895 6985 c-3 -8 -7 -22 -10 -31 -3 -8 -1 -13 4 -10 5 3 11 17 13
31 6 27 0 34 -7 10z"/>
<path d="M5450 6870 c-71 -145 -108 -195 -184 -246 -56 -38 -55 -44 3 -15 58
30 124 100 166 177 21 38 55 96 75 129 20 33 40 66 44 73 5 8 0 12 -16 12 -21
0 -33 -18 -88 -130z"/>
<path d="M5570 6986 c0 -8 8 -13 18 -12 9 2 20 -2 24 -8 11 -16 10 -28 -2 -21
-5 3 -10 2 -10 -4 0 -5 -9 -8 -20 -6 -11 2 -20 0 -20 -5 0 -14 15 -19 37 -14
18 5 30 21 52 68 2 5 -3 6 -12 3 -9 -3 -19 -2 -22 3 -9 15 -45 12 -45 -4z"/>
<path d="M5661 6974 c0 -11 3 -14 6 -6 3 7 2 16 -1 19 -3 4 -6 -2 -5 -13z"/>
<path d="M5640 6935 c0 -8 2 -15 4 -15 2 0 6 7 10 15 3 8 1 15 -4 15 -6 0 -10
-7 -10 -15z"/>
<path d="M5670 6940 c0 -5 5 -10 10 -10 6 0 10 5 10 10 0 6 -4 10 -10 10 -5 0
-10 -4 -10 -10z"/>
<path d="M5655 6911 c-3 -5 -1 -12 5 -16 5 -3 10 1 10 9 0 18 -6 21 -15 7z"/>
<path d="M5626 6868 c8 -54 14 -61 14 -19 0 20 4 30 11 26 6 -4 5 2 -3 14 -20
33 -29 25 -22 -21z"/>
<path d="M1680 6819 c-7 -12 -8 -19 -2 -15 6 3 13 0 15 -6 4 -10 8 -9 16 2 6
8 9 19 8 24 -6 19 -26 17 -37 -5z"/>
<path d="M1746 6785 c4 -8 8 -15 10 -15 2 0 4 7 4 15 0 8 -4 15 -10 15 -5 0
-7 -7 -4 -15z"/>
<path d="M1850 6532 c0 -50 2 -52 38 -43 2 1 -4 11 -12 23 -20 28 -21 44 -1
28 8 -7 12 -17 8 -23 -4 -7 0 -8 11 -4 10 4 22 7 27 7 5 0 9 5 9 11 0 6 -9 9
-20 6 -14 -3 -26 3 -40 20 l-20 26 0 -51z"/>
<path d="M2010 6465 c-9 -11 -6 -17 17 -29 35 -18 93 -74 93 -90 0 -6 -6 -3
-13 6 -9 11 -18 14 -27 8 -18 -11 -36 0 -19 12 10 6 9 8 -7 6 -11 -2 -29 4
-39 12 -16 13 -18 13 -13 0 8 -27 138 -97 191 -104 27 -4 56 -14 64 -22 8 -8
19 -11 25 -8 22 14 76 12 82 -2 4 -11 -1 -13 -20 -10 -21 4 -24 3 -14 -9 7 -8
17 -13 23 -12 7 1 11 -4 9 -10 -1 -7 2 -13 7 -13 5 0 12 -8 14 -17 4 -17 5
-17 6 0 0 10 6 15 11 12 6 -3 14 -3 20 0 5 3 -20 37 -57 75 -36 38 -70 67 -75
64 -4 -3 -8 2 -8 10 0 8 -8 14 -19 13 -11 0 -18 -4 -15 -8 2 -4 -3 -10 -12
-13 -16 -6 -47 22 -39 35 2 3 -6 4 -18 3 -12 -1 -25 -3 -29 -3 -12 -1 -9 -31
2 -31 6 0 10 7 10 15 0 12 7 9 27 -10 32 -29 51 -32 68 -8 11 15 12 13 13 -13
0 -44 0 -44 29 -33 14 5 30 6 34 2 4 -4 -4 -9 -18 -10 -14 0 -29 -7 -34 -15
-6 -9 -9 -9 -9 -1 0 11 -43 27 -100 37 -14 2 -24 8 -23 14 1 6 -7 7 -20 4 -18
-4 -20 -3 -11 9 20 25 23 59 7 74 -8 8 -19 13 -24 10 -5 -4 -9 -1 -9 5 0 6 -4
9 -8 6 -4 -2 -14 0 -22 5 -11 8 -3 9 25 4 22 -4 43 -12 47 -18 6 -9 8 -8 8 1
0 7 -7 15 -16 19 -11 4 -12 8 -4 13 8 5 7 9 -4 13 -11 4 -16 1 -16 -10 0 -13
-3 -14 -12 -5 -8 8 -17 8 -30 1 -22 -12 -40 -2 -19 10 10 7 10 9 -2 14 -9 3
-21 0 -27 -8z m90 -125 c8 -5 11 -10 5 -10 -5 0 -17 5 -25 10 -8 5 -10 10 -5
10 6 0 17 -5 25 -10z m210 -29 c0 -5 -9 -11 -21 -14 -16 -4 -18 -3 -8 9 13 16
29 19 29 5z m86 -92 c19 -22 19 -22 -3 -10 -13 6 -23 16 -23 21 0 15 5 12 26
-11z"/>
<path d="M1836 6418 c35 -31 37 -31 50 -13 8 10 17 15 21 12 4 -4 1 -13 -5
-19 -16 -16 -15 -25 2 -31 11 -4 13 -1 9 11 -6 14 -4 15 8 5 12 -10 18 -10 29
0 10 10 12 9 6 -6 -3 -10 -6 -21 -6 -23 0 -3 -4 -3 -9 1 -5 3 -13 0 -17 -6 -4
-8 -3 -9 4 -5 7 4 12 3 12 -2 0 -5 -14 -12 -30 -14 -18 -3 -30 0 -29 6 3 30
-3 44 -21 49 -27 7 -25 -7 3 -27 15 -12 17 -16 5 -12 -12 3 -18 0 -18 -9 0
-14 18 -20 48 -16 7 1 15 -5 18 -13 3 -8 12 -12 20 -9 8 3 11 10 7 17 -3 6 0
5 8 -2 12 -11 12 -14 -1 -22 -8 -5 -10 -10 -5 -11 6 0 18 -2 28 -4 13 -2 17 1
13 12 -5 12 -1 14 19 11 14 -3 22 -1 18 5 -3 5 0 8 8 5 12 -4 15 -16 10 -46 0
-4 -10 -8 -22 -8 -18 0 -18 2 -4 12 13 10 13 13 1 17 -17 7 -28 -27 -14 -41 6
-6 17 -8 26 -5 9 4 13 2 9 -4 -3 -5 1 -10 9 -10 8 0 13 6 10 12 -6 16 11 41
21 32 4 -5 1 -12 -7 -17 -13 -8 -12 -10 3 -10 9 0 17 -5 17 -11 0 -5 -6 -7
-12 -3 -7 4 -10 3 -5 -1 4 -5 17 -10 29 -12 12 -2 25 -8 29 -14 3 -6 8 -9 10
-7 3 1 17 -9 32 -23 25 -23 26 -27 13 -39 -14 -11 -16 -9 -17 11 -1 17 -3 19
-6 7 -2 -10 -10 -18 -16 -18 -7 -1 -6 -5 3 -13 9 -7 25 -25 38 -41 12 -16 22
-24 22 -17 0 6 7 11 15 11 7 0 19 8 24 18 6 9 11 13 11 8 0 -5 7 -3 15 4 13
11 13 14 -2 25 -10 8 -15 17 -11 21 5 4 16 -1 27 -10 14 -13 21 -14 27 -5 4 8
3 10 -4 5 -7 -4 -12 -2 -12 3 0 6 5 11 10 11 6 0 10 5 10 11 0 7 -16 8 -45 3
-60 -9 -94 1 -105 31 -7 17 -17 25 -34 25 -25 0 -51 23 -42 38 3 5 -26 37 -64
71 -39 34 -70 69 -70 77 0 20 27 29 45 14 9 -7 18 -10 22 -7 3 4 -7 12 -21 19
-22 9 -32 9 -47 0 -13 -9 -25 -9 -37 -3 -10 6 -23 6 -34 0 -12 -7 -18 -6 -18
1 0 7 -8 9 -19 5 -11 -3 -22 -1 -26 5 -3 5 -11 10 -16 10 -5 0 7 -14 27 -32z
m104 -13 c10 -12 10 -15 -4 -15 -9 0 -16 7 -16 15 0 8 2 15 4 15 2 0 9 -7 16
-15z m36 -62 c-3 -8 -2 -12 3 -9 4 3 16 0 25 -7 15 -11 14 -13 -11 -11 -23 1
-28 5 -29 27 -1 14 3 24 8 21 5 -3 7 -13 4 -21z m253 -215 c1 12 6 22 12 22 6
0 9 -9 6 -19 -3 -15 -1 -18 11 -14 10 4 8 -1 -6 -15 -24 -24 -37 -29 -27 -9 4
6 0 4 -8 -6 -13 -15 -16 -16 -27 -2 -10 13 -11 18 -1 28 10 9 11 8 5 -7 -5
-14 -4 -17 5 -12 6 4 11 15 10 24 -3 31 3 37 11 12 8 -24 8 -24 9 -2z"/>
<path d="M2144 6419 c-1 -21 3 -28 15 -26 25 4 42 17 35 28 -3 6 -12 5 -22 -3
-9 -7 -13 -8 -9 -2 4 7 1 16 -6 22 -9 8 -12 3 -13 -19z"/>
<path d="M1623 6425 c0 -8 4 -12 9 -9 5 3 6 10 3 15 -9 13 -12 11 -12 -6z"/>
<path d="M2036 6404 c-8 -21 -6 -23 17 -15 17 6 17 9 4 19 -12 10 -16 9 -21
-4z"/>
<path d="M2160 6326 c0 -2 7 -6 15 -10 8 -3 15 -1 15 4 0 6 -7 10 -15 10 -8 0
-15 -2 -15 -4z"/>
<path d="M2220 6255 c0 -10 90 -65 102 -62 7 2 10 2 6 0 -14 -8 -8 -21 13 -26
15 -4 17 -2 10 6 -5 7 -11 17 -13 22 -1 6 -9 9 -15 9 -7 -1 -13 3 -13 9 0 6
-3 7 -7 4 -3 -4 -21 4 -39 18 -32 24 -44 30 -44 20z"/>
<path d="M5565 6199 c4 -13 3 -19 -2 -16 -6 4 -8 -4 -5 -19 3 -19 7 -22 13
-12 12 19 11 68 -2 68 -6 0 -8 -9 -4 -21z"/>
<path d="M2058 6198 c5 -5 16 -8 23 -6 8 3 3 7 -10 11 -17 4 -21 3 -13 -5z"/>
<path d="M2096 6183 c-6 -14 -5 -15 5 -6 7 7 10 15 7 18 -3 3 -9 -2 -12 -12z"/>
<path d="M2124 6175 c-16 -13 -17 -16 -4 -25 22 -14 25 -13 28 15 2 29 2 29
-24 10z"/>
<path d="M5530 6170 c0 -5 5 -10 11 -10 5 0 7 5 4 10 -3 6 -8 10 -11 10 -2 0
-4 -4 -4 -10z"/>
<path d="M5560 5969 c0 -5 5 -7 10 -4 6 3 10 8 10 11 0 2 -4 4 -10 4 -5 0 -10
-5 -10 -11z"/>
<path d="M4580 5710 c-13 -8 -12 -10 3 -10 18 0 41 -45 33 -65 -6 -15 31 -48
39 -35 4 6 -4 14 -16 18 -15 6 -18 11 -11 16 16 9 15 59 0 74 -14 14 -28 15
-48 2z m47 -32 c-3 -8 -6 -5 -6 6 -1 11 2 17 5 13 3 -3 4 -12 1 -19z"/>
<path d="M4700 5671 c0 -8 -6 -11 -17 -7 -9 4 -20 1 -25 -6 -11 -19 -10 -25 7
-25 18 0 51 34 42 44 -4 3 -7 1 -7 -6z"/>
</g>
</svg>
