<?xml version="1.0" standalone="no"?>
<!DOCTYPE svg PUBLIC "-//W3C//DTD SVG 20010904//EN"
 "http://www.w3.org/TR/2001/REC-SVG-20010904/DTD/svg10.dtd">
<svg version="1.0" xmlns="http://www.w3.org/2000/svg"
 width="700.000000pt" height="700.000000pt" viewBox="0 0 700.000000 700.000000"
 preserveAspectRatio="xMidYMid meet">
<metadata>
Created by potrace 1.14, written by Peter Selinger 2001-2017
</metadata>
<g transform="translate(0.000000,700.000000) scale(0.100000,-0.100000)"
fill="#000000" stroke="none">
<path d="M2517 6871 c-116 -26 -202 -67 -292 -141 -133 -111 -189 -228 -135
-285 13 -14 28 -25 33 -25 6 0 1 10 -10 23 -11 12 -24 32 -27 44 -15 47 61
169 133 214 25 16 44 33 42 37 -7 13 164 92 244 113 91 23 241 27 319 9 59
-13 73 -6 19 10 -72 21 -230 22 -326 1z"/>
<path d="M2940 6824 c131 -74 212 -220 197 -358 -4 -33 -3 -43 3 -30 14 36 71
48 230 48 286 -1 510 -68 816 -244 60 -35 145 -83 189 -108 44 -26 112 -66
150 -91 106 -67 165 -101 162 -93 -1 4 1 7 5 7 13 0 58 49 58 63 0 10 -12 7
-45 -12 -25 -15 -45 -24 -45 -20 0 3 45 57 100 120 98 110 202 205 274 248 19
11 72 47 116 79 45 32 83 57 85 55 2 -2 0 -22 -5 -45 -9 -50 2 -57 20 -13 20
49 33 36 27 -28 -2 -33 -19 -91 -37 -133 -17 -41 -34 -92 -37 -114 -2 -22 -15
-64 -28 -92 -13 -29 -22 -53 -19 -53 3 0 -4 -16 -16 -35 l-22 -35 37 0 c31 0
35 -2 26 -14 -6 -8 -21 -46 -32 -86 -11 -39 -35 -101 -53 -138 l-34 -67 80
-85 79 -85 -7 56 c-4 34 -2 70 5 91 14 43 5 71 -20 65 -24 -6 -24 -8 5 44 47
85 91 264 100 409 2 25 10 81 20 125 57 274 64 345 40 400 -11 27 -16 63 -15
113 2 45 -2 72 -8 72 -6 0 -11 -9 -11 -19 0 -30 -86 -85 -170 -110 -106 -32
-229 -86 -340 -149 -95 -54 -133 -81 -97 -68 43 15 72 19 62 8 -14 -15 -275
-172 -286 -172 -5 0 -9 7 -9 15 0 20 -3 20 -184 -25 -138 -34 -162 -37 -179
-25 -18 13 -18 14 5 28 12 8 67 29 121 47 53 17 97 34 97 37 0 16 -215 -50
-243 -74 -16 -15 -26 -12 -125 35 -218 103 -420 146 -652 140 -80 -2 -153 -8
-162 -12 -15 -7 -18 -3 -18 26 0 46 -27 133 -54 177 -30 46 -94 105 -145 131
-57 29 -65 25 -11 -6z m2298 -221 l-2 -88 -5 73 -6 73 -58 -73 c-31 -40 -64
-82 -73 -93 -11 -14 -11 -11 2 10 16 29 136 185 142 185 1 0 1 -39 0 -87z
m-248 -233 c-8 -5 -22 -9 -30 -9 -10 0 -8 3 5 9 27 12 43 12 25 0z m-118 -74
c-40 -41 -72 -78 -72 -83 0 -5 6 -15 13 -23 10 -12 9 -12 -5 -1 -10 7 -18 18
-18 23 0 10 139 158 148 158 3 0 -27 -33 -66 -74z m-102 -153 c-8 -3 -35 -17
-60 -31 -51 -29 -51 -24 0 12 19 13 44 24 55 24 14 0 16 -1 5 -5z m-127 -65
c-26 -13 -27 -16 -13 -54 6 -15 9 -28 7 -30 -2 -3 -11 14 -20 36 -15 40 -15
41 6 50 31 12 46 11 20 -2z"/>
<path d="M5207 6796 c-58 -24 -91 -45 -83 -53 5 -5 146 65 146 72 0 7 2 7 -63
-19z"/>
<path d="M2480 6793 c-14 -2 -53 -11 -88 -19 -57 -15 -67 -22 -109 -73 -25
-31 -56 -78 -69 -106 -43 -90 -26 -238 31 -285 13 -10 10 -2 -8 25 -15 22 -27
45 -27 51 0 10 63 42 116 58 68 20 280 48 408 53 149 6 307 -8 334 -29 22 -18
14 -91 -16 -151 -16 -31 -23 -52 -16 -46 27 22 54 96 54 146 0 66 -46 159
-105 211 -83 73 -221 132 -355 152 -103 16 -123 17 -150 13z m223 -47 c161
-41 287 -117 328 -198 11 -22 19 -42 16 -44 -2 -2 -19 2 -38 8 -22 9 -93 13
-209 13 -190 0 -349 -23 -500 -71 -41 -13 -81 -24 -87 -24 -9 0 -13 16 -13 48
0 106 119 269 213 291 60 14 180 5 290 -23z"/>
<path d="M4999 6721 c-102 -38 -211 -96 -240 -128 -19 -20 -10 -16 39 15 34
22 97 55 140 72 169 70 206 95 61 41z"/>
<path d="M4668 6554 c-27 -13 -48 -29 -48 -34 0 -6 3 -10 6 -10 8 0 94 60 94
65 0 7 1 7 -52 -21z"/>
<path d="M4531 6555 c-40 -18 -161 -113 -161 -127 0 -5 29 13 64 41 35 28 88
62 118 76 29 13 44 24 33 24 -11 0 -35 -6 -54 -14z"/>
<path d="M2009 6325 c-142 -72 -273 -152 -389 -237 -106 -79 -306 -275 -394
-385 l-57 -73 -56 0 c-54 0 -55 -1 -51 -25 5 -24 4 -25 -57 -25 -34 0 -124
-12 -201 -27 -128 -24 -156 -26 -355 -24 -183 3 -221 1 -248 -13 -23 -13 -31
-23 -31 -44 0 -39 53 -118 95 -143 34 -20 39 -39 9 -39 -30 0 -6 -72 50 -149
18 -25 46 -71 61 -101 37 -74 116 -188 154 -224 17 -17 31 -35 31 -41 0 -7 15
-27 32 -46 18 -19 60 -64 93 -100 33 -36 74 -73 91 -82 l31 -16 -14 -83 c-17
-104 -34 -413 -28 -493 2 -33 9 -121 16 -195 l11 -135 -30 -75 c-16 -41 -35
-98 -42 -126 -13 -49 -12 -53 19 -110 17 -33 52 -84 78 -113 l46 -52 -7 -101
c-7 -96 -12 -114 -102 -352 -53 -138 -120 -316 -149 -396 -127 -345 -208 -663
-219 -860 l-5 -95 14 105 c22 161 64 362 105 500 29 96 194 558 203 567 1 1 2
-44 1 -100 -1 -100 -2 -104 -48 -202 -66 -138 -118 -271 -155 -394 -48 -160
-36 -144 23 34 51 150 93 255 164 403 l31 64 15 -31 c21 -39 66 -81 148 -136
65 -44 67 -46 73 -98 10 -83 -10 -284 -36 -352 -12 -33 -68 -161 -124 -285
-56 -124 -105 -235 -109 -247 -4 -13 -12 -23 -19 -23 -16 0 -106 99 -128 142
-29 56 -68 203 -77 288 l-8 75 -22 -95 c-69 -302 -39 -514 92 -639 20 -19 36
-39 36 -44 0 -5 -27 -39 -60 -75 -136 -150 -260 -351 -335 -542 -24 -61 -53
-123 -63 -138 -20 -28 -62 -107 -62 -117 0 -3 6 -5 13 -5 7 0 21 17 31 38 57
122 204 292 328 381 27 19 48 38 48 43 0 18 -97 -59 -192 -153 -54 -52 -98
-91 -98 -85 0 22 88 204 138 288 66 108 180 260 238 316 25 23 46 42 47 42 2
0 -1 -36 -6 -79 -6 -47 -6 -103 -1 -137 8 -51 12 -59 29 -55 18 3 19 2 4 -15
-73 -88 -91 -113 -106 -158 -22 -67 -23 -241 0 -309 23 -72 57 -117 87 -117
23 0 28 8 53 82 17 52 23 86 17 92 -6 6 -13 -2 -21 -20 -6 -16 -20 -53 -31
-81 -11 -29 -23 -53 -27 -53 -17 0 -54 86 -66 155 -22 130 7 288 64 339 16 15
19 12 40 -30 27 -57 39 -51 16 8 -46 122 24 400 150 593 l26 40 -6 -37 c-9
-56 20 -170 64 -255 47 -90 135 -191 225 -260 35 -26 98 -79 140 -117 42 -38
79 -67 82 -64 2 3 -50 54 -117 114 -67 60 -145 130 -172 155 l-50 46 33 47
c18 25 35 46 36 46 1 0 53 -52 116 -116 62 -64 141 -138 176 -166 53 -43 62
-54 62 -82 0 -33 25 -66 49 -66 9 0 11 7 6 22 -8 23 -9 56 -3 92 2 10 -4 21
-12 24 -13 5 -13 3 0 -14 14 -18 14 -18 -5 -4 -57 42 -175 144 -215 185 l-45
47 57 -42 c32 -24 58 -47 58 -51 0 -5 4 -8 8 -6 4 1 43 -25 86 -57 85 -65 96
-65 96 5 0 76 32 199 51 199 18 0 6 -120 -23 -228 -8 -31 -8 -46 0 -54 8 -8
13 -3 17 18 29 128 63 234 82 254 20 21 34 2 78 -110 21 -52 42 -100 46 -106
6 -7 25 -8 64 -1 30 6 58 7 62 3 4 -3 6 -24 5 -46 -2 -22 -1 -40 2 -40 2 0 18
24 34 53 33 58 73 97 100 97 24 0 51 -48 74 -134 26 -94 33 -156 18 -156 -14
0 -40 61 -46 109 -8 66 -34 141 -49 141 -23 0 -74 -71 -101 -142 -27 -70 -46
-94 -65 -82 -8 5 -10 31 -5 89 l7 83 -36 -8 c-20 -5 -39 -11 -42 -14 -3 -3 4
-29 16 -57 11 -28 21 -66 21 -84 0 -27 -5 -35 -31 -45 -17 -7 -35 -23 -39 -34
-6 -15 -9 -16 -9 -5 -1 10 -17 21 -43 28 -23 7 -53 18 -67 24 -14 5 -30 9 -35
8 -12 -3 -37 20 -31 29 3 5 0 12 -7 16 -7 4 -10 4 -6 -1 4 -4 0 -14 -10 -22
-16 -12 -13 -17 36 -61 l52 -47 -27 -69 -27 -69 -14 33 c-27 67 -173 243 -188
227 -4 -4 17 -33 47 -64 57 -60 104 -124 133 -181 16 -31 16 -38 2 -78 l-15
-44 48 0 c40 0 50 4 58 23 6 12 29 42 50 67 69 77 145 183 128 176 -9 -3 -29
-8 -43 -11 -20 -4 -17 -1 8 8 19 8 46 18 60 22 l25 7 -26 -28 c-14 -16 -45
-55 -68 -87 -23 -31 -62 -80 -86 -107 -25 -28 -45 -55 -45 -60 0 -16 1177 -13
1184 3 5 10 7 10 12 0 4 -10 66 -13 260 -13 l254 0 -6 33 c-12 68 -63 155
-124 209 -105 95 -550 322 -759 388 -41 13 -70 25 -64 27 24 8 266 -38 329
-63 72 -28 199 -91 294 -145 142 -81 271 -194 339 -299 19 -30 50 -72 68 -93
18 -20 33 -42 33 -47 0 -6 40 -10 100 -10 98 0 100 0 100 23 0 75 -68 203
-151 286 -124 123 -281 190 -669 285 -147 35 -195 44 -560 96 -219 32 -246 38
-355 78 -65 24 -109 57 -163 126 -40 50 -80 217 -88 369 -3 57 0 159 8 232 9
87 11 191 7 315 -9 248 -10 530 -4 530 4 0 18 -6 33 -14 15 -8 63 -24 108 -35
44 -12 104 -36 133 -52 44 -26 52 -34 47 -52 -3 -12 -15 -65 -26 -117 -43
-207 -55 -252 -112 -430 -96 -303 -120 -424 -116 -600 1 -54 3 -67 5 -37 l4
48 30 -60 c17 -33 48 -76 70 -94 43 -37 122 -67 176 -67 l34 0 -63 59 c-73 68
-143 184 -182 303 -25 74 -35 175 -17 164 5 -4 7 2 5 12 -4 13 48 205 82 302
3 8 19 -26 35 -75 57 -169 124 -281 270 -450 97 -112 192 -200 309 -287 105
-77 156 -104 220 -117 81 -16 315 -31 474 -31 198 0 560 -55 668 -102 44 -19
118 -86 118 -107 0 -5 3 -17 7 -27 4 -12 3 -15 -5 -10 -16 9 -15 5 4 -34 19
-37 15 -126 -9 -195 -10 -32 -11 -61 -3 -138 l10 -97 464 0 464 0 -17 27 c-51
77 -58 97 -66 184 -8 88 -27 143 -58 166 -9 6 -55 28 -104 48 -50 21 -84 41
-81 47 11 18 116 59 165 65 40 5 49 2 68 -18 12 -13 28 -31 36 -39 8 -9 52
-119 98 -245 l83 -230 62 -3 c34 -2 62 0 62 3 0 4 -43 97 -96 208 -53 111
-106 224 -119 250 -22 47 -22 48 -3 58 11 6 21 9 22 7 2 -2 29 -52 60 -113 59
-112 204 -366 228 -398 11 -14 24 -18 61 -15 l48 3 -105 166 c-218 348 -227
367 -230 473 -1 35 3 42 31 59 18 10 37 16 42 13 5 -4 21 -41 35 -84 21 -63
41 -96 99 -168 335 -413 324 -398 319 -435 -3 -22 -1 -30 5 -24 6 6 24 132 42
280 40 338 47 375 69 375 9 0 50 10 91 23 l74 22 4 65 c8 152 56 656 62 662
13 15 360 -94 399 -125 9 -7 11 -6 7 5 -10 25 -74 50 -260 104 -65 19 -128 34
-138 34 -31 0 -85 50 -174 159 -79 99 -84 108 -78 141 4 19 8 37 10 38 6 6
128 -79 175 -122 25 -23 56 -49 70 -59 l25 -18 -25 11 c-24 10 -24 10 -5 -5
25 -20 137 -91 288 -183 107 -66 117 -70 117 -49 0 12 3 32 6 44 l6 22 50 -25
50 -25 -6 -62 -7 -62 49 -27 c107 -60 190 -160 231 -279 29 -85 34 -112 19
-104 -7 4 -4 -1 6 -9 26 -21 29 -15 17 31 -15 53 -13 165 3 244 26 120 86 240
196 388 67 90 79 116 24 50 -65 -78 -122 -163 -160 -239 -21 -41 -39 -77 -41
-79 -10 -14 -353 168 -490 261 -93 62 -335 244 -382 287 -30 27 -61 40 -61 27
0 -7 237 -196 308 -245 34 -24 62 -46 62 -48 0 -11 -274 137 -415 226 l-90 56
65 6 65 6 -79 1 -79 2 7 38 c3 20 6 48 6 62 l0 25 18 -22 c11 -13 45 -29 92
-41 86 -23 156 -52 185 -77 20 -16 20 -16 -2 -12 -36 8 -27 0 32 -27 30 -13
72 -37 92 -52 l38 -26 -30 26 c-123 110 -157 131 -286 170 -90 27 -145 68
-134 98 5 13 22 9 108 -25 142 -56 258 -87 353 -94 98 -7 180 15 318 84 l90
45 85 -21 c108 -26 208 -74 294 -140 l67 -52 0 225 0 224 -32 11 c-35 11 -174
31 -214 31 -14 0 -22 -4 -19 -10 6 -10 1 -11 -100 -31 -33 -6 -141 -34 -240
-61 -99 -27 -214 -55 -255 -62 l-75 -13 99 -8 c54 -4 141 -5 192 -3 51 3 91 1
88 -3 -3 -5 -17 -9 -32 -10 -24 0 -25 -1 -7 -9 11 -5 33 -9 50 -9 45 -1 21
-16 -80 -50 -184 -61 -299 -61 -562 -4 l-122 27 -3 30 c-5 53 -83 74 -276 76
l-52 0 -58 123 c-108 225 -182 495 -182 662 0 38 -4 65 -8 60 -22 -26 -117
-290 -148 -411 -31 -124 -33 -143 -24 -190 12 -58 69 -183 106 -231 l24 -32
-32 -5 c-18 -3 -61 -7 -95 -10 -57 -4 -63 -2 -63 15 0 15 18 112 44 244 6 27
5 27 -7 -5 -8 -19 -20 -66 -27 -105 -7 -38 -17 -74 -21 -79 -26 -30 -22 431 5
579 8 44 28 157 45 251 34 188 53 432 33 420 -7 -4 -12 -15 -12 -25 0 -38 -79
-179 -135 -239 -31 -34 -61 -62 -65 -62 -9 0 20 102 50 178 38 98 71 225 90
352 15 99 26 140 54 194 l35 69 4 -39 c3 -33 4 -30 5 15 1 30 9 93 18 139 10
53 15 121 12 179 -2 67 0 89 7 77 42 -73 154 -231 205 -288 l62 -69 -6 -86
c-4 -47 -12 -120 -17 -161 -6 -42 -9 -89 -7 -105 5 -39 28 116 37 240 l6 93
38 -33 c36 -31 38 -36 52 -136 8 -57 15 -127 15 -155 0 -33 5 -56 15 -64 8 -7
15 -18 15 -25 0 -6 18 -37 40 -69 22 -31 40 -63 40 -70 0 -25 -41 -146 -49
-146 -4 0 -16 60 -25 133 -22 165 -27 184 -20 79 2 -45 11 -118 20 -162 l15
-79 -27 -41 c-15 -22 -30 -40 -35 -40 -9 0 -52 127 -73 215 -8 33 -15 49 -15
37 -2 -54 73 -288 101 -317 6 -6 6 0 -1 16 -8 23 -5 30 23 58 43 42 81 119 98
201 11 57 14 61 19 35 7 -30 7 -30 7 5 1 19 -20 125 -47 235 -27 110 -47 202
-46 203 6 6 145 -70 145 -79 0 -4 25 -41 55 -81 30 -40 55 -78 55 -84 0 -7
-16 -36 -35 -65 -49 -71 -50 -73 -37 -65 25 15 90 129 111 193 l23 71 71 4
c40 3 73 4 74 4 8 -5 -40 -78 -80 -122 -56 -62 -52 -73 5 -17 24 23 42 34 46
27 4 -5 43 -68 88 -139 105 -168 158 -267 179 -335 20 -62 44 -114 51 -108 2
3 -16 55 -40 116 -40 102 -124 254 -216 392 -65 97 -64 93 -30 149 26 41 37
50 68 56 20 3 57 18 82 31 25 14 36 22 25 18 -80 -28 -162 -45 -240 -50 -116
-7 -210 16 -355 87 -96 48 -115 62 -215 163 -60 61 -133 145 -161 186 -49 74
-114 203 -114 231 0 8 -8 23 -17 34 l-16 20 8 -20 c3 -11 6 -90 6 -175 -2
-222 -30 -329 -117 -452 -18 -26 -28 -45 -21 -42 27 10 -8 -220 -57 -374 l-23
-73 -9 148 c-13 219 -10 349 15 533 30 227 30 226 49 165 9 -33 15 -98 16
-190 1 -131 -1 -144 -26 -204 -20 -48 -23 -60 -9 -45 59 65 76 284 33 439 -13
44 -29 97 -37 118 -15 37 -15 37 9 37 41 0 38 16 -5 30 -37 13 -44 21 -86 104
-71 142 -237 396 -250 383 -2 -3 22 -45 54 -94 66 -99 133 -208 133 -217 0 -9
-299 251 -322 279 l-20 25 34 15 33 16 -31 -6 c-33 -6 -161 -69 -179 -87 -9
-10 17 2 93 40 l34 17 26 -32 c15 -17 39 -68 54 -112 15 -44 50 -132 78 -196
27 -64 49 -120 47 -125 -3 -12 77 -121 115 -156 22 -20 16 -9 -21 39 -28 38
-49 72 -46 77 2 4 17 10 31 13 24 4 29 -1 52 -51 14 -31 26 -70 28 -87 1 -16
4 -37 7 -45 3 -8 8 -26 10 -40 2 -14 5 4 6 40 1 36 4 89 7 118 7 51 7 52 41
52 22 0 36 -6 40 -17 4 -10 -6 -119 -21 -243 -32 -262 -31 -238 -21 -540 10
-283 2 -332 -79 -497 -71 -145 -149 -245 -312 -402 -190 -182 -174 -176 -466
-176 l-237 0 -6 -55 c-10 -89 -12 -92 -38 -67 -12 12 -55 51 -95 86 -40 35
-71 65 -70 67 2 1 35 -4 73 -12 39 -7 84 -13 100 -13 17 0 -25 11 -91 24 -115
21 -125 26 -200 77 -44 30 -100 67 -126 82 -36 20 -57 42 -87 94 -42 73 -125
271 -117 280 3 2 31 -8 63 -23 71 -33 224 -85 249 -84 11 0 -12 9 -51 20 -99
28 -264 111 -356 181 -43 32 -113 96 -155 141 -80 85 -90 87 -20 4 22 -26 80
-80 129 -120 90 -73 118 -111 147 -202 21 -67 99 -228 123 -253 12 -13 65 -50
117 -83 270 -167 490 -381 572 -556 27 -57 30 -71 27 -147 -2 -46 -1 -82 3
-80 14 9 208 44 240 44 18 0 76 23 137 54 58 29 142 66 185 81 173 59 465 102
615 89 95 -7 133 -19 171 -51 26 -21 30 -32 30 -75 l0 -50 -32 20 c-77 47
-279 92 -413 92 -146 0 -334 -48 -475 -121 l-65 -33 75 -7 c149 -14 219 -37
155 -52 -11 -2 0 -2 25 2 101 13 230 -11 299 -56 l26 -16 -20 23 -20 22 35 -7
c59 -12 234 -79 284 -109 48 -28 106 -96 106 -124 0 -12 -7 -9 -27 10 -37 34
-77 53 -141 67 -55 11 -112 15 -112 6 0 -2 9 -19 20 -37 28 -46 26 -119 -5
-186 -18 -39 -68 -97 -187 -219 -90 -91 -153 -160 -140 -154 20 10 27 9 52
-13 43 -35 132 -66 193 -66 58 0 169 36 216 69 17 12 31 18 31 13 0 -22 -86
-136 -138 -182 -30 -27 -53 -53 -49 -57 4 -3 21 6 37 22 34 33 39 26 10 -15
-24 -33 -145 -94 -221 -110 -105 -23 -228 11 -256 71 -16 33 2 100 43 162 14
23 19 35 10 27 -9 -9 -31 -44 -50 -79 -30 -58 -34 -62 -41 -40 -21 65 13 247
77 407 16 41 28 75 26 76 -2 2 -47 26 -101 55 -83 44 -103 51 -132 45 -33 -6
-50 -24 -23 -24 11 0 96 -47 190 -106 l36 -23 -24 -63 c-13 -35 -31 -88 -39
-119 l-16 -57 -52 14 c-66 18 -278 59 -404 80 -97 15 -98 15 -153 68 -107 105
-305 240 -410 282 l-44 18 70 12 c96 16 118 24 106 36 -8 8 -31 6 -76 -6 -126
-31 -308 -16 -481 41 -177 57 -253 119 -329 263 -26 50 -50 107 -51 126 -2 19
-13 51 -24 70 -20 34 -68 186 -109 344 -15 60 -30 90 -76 150 -123 162 -323
636 -410 974 -15 56 -61 131 -125 199 -30 33 -29 20 -30 326 -1 134 -4 242 -7
238 -3 -3 -6 -116 -6 -251 1 -135 0 -246 -2 -246 -1 0 -70 76 -153 169 l-151
168 -1 114 c-2 170 16 382 44 520 32 160 99 364 132 403 31 39 98 159 139 251
31 68 46 135 59 261 l7 62 -52 11 c-69 15 -87 14 -98 -5 -8 -15 -39 -18 -228
-22 l-218 -5 64 77 c78 94 216 227 350 337 100 82 138 120 58 58 -161 -124
-308 -261 -400 -371 -77 -91 -83 -97 -112 -91 -17 3 -33 7 -35 9 -8 7 103 139
204 240 112 112 276 249 397 330 36 24 126 76 200 114 73 38 124 70 113 69
-11 0 -68 -24 -126 -54z m-1597 -964 l-34 -6 34 -50 c42 -63 64 -68 215 -55
65 6 127 11 138 11 11 1 77 -4 148 -12 86 -9 127 -17 127 -26 0 -17 40 -43 67
-43 12 0 38 -14 57 -31 37 -32 116 -59 174 -59 l34 0 -8 -42 c-12 -72 -11 -73
24 -76 18 -2 30 -8 27 -13 -8 -12 -4 -12 40 7 20 8 34 11 31 6 -3 -5 -19 -15
-36 -22 -46 -19 -19 -30 72 -28 68 0 77 3 82 21 3 12 8 19 11 16 3 -3 -1 -22
-9 -41 -41 -98 -98 -389 -112 -570 -4 -48 -9 -87 -13 -86 -3 1 -13 -2 -22 -6
-9 -4 -38 -6 -65 -4 -46 3 -50 6 -68 41 -18 37 -18 39 0 52 17 13 16 14 -21
15 -22 0 -58 5 -80 11 -51 14 -145 60 -145 71 0 11 3 10 36 -7 16 -8 36 -15
44 -15 8 1 2 8 -15 17 -16 9 -32 20 -35 24 -3 5 -24 16 -45 25 -22 9 -48 23
-57 31 -9 8 -21 12 -26 9 -5 -3 -18 1 -28 10 -18 14 -17 14 6 3 36 -17 15 1
-65 55 -65 43 -60 32 10 -22 24 -19 25 -21 6 -11 -28 13 -130 114 -179 177
l-33 42 34 0 c26 0 36 5 40 20 3 10 1 18 -3 17 -13 -3 -235 216 -263 259 -14
22 -28 49 -32 62 -5 19 -3 22 20 22 26 0 25 2 -29 61 -48 51 -96 124 -96 144
0 3 17 4 38 4 l37 -2 -33 -6z m81 -8 c-7 -2 -21 -2 -30 0 -10 3 -4 5 12 5 17
0 24 -2 18 -5z m61 -13 c15 -6 26 -17 25 -27 -1 -15 -2 -15 -6 -2 -2 9 -18 21
-36 27 -18 5 -27 10 -20 11 6 1 23 -3 37 -9z m154 -67 c-16 -2 -40 -2 -55 0
-16 2 -3 4 27 4 30 0 43 -2 28 -4z m930 -253 c0 -20 -1 -21 -5 -5 -9 35 -21
38 -55 12 -18 -13 -44 -30 -58 -36 l-25 -12 25 18 c13 10 43 32 65 49 43 33
54 28 53 -26z m2919 -515 c77 -54 145 -122 171 -172 17 -32 17 -32 -42 -12
-30 10 -82 21 -117 23 -56 4 -64 7 -77 31 -14 28 -92 231 -92 241 0 3 17 -8
38 -24 20 -16 74 -55 119 -87z m-3636 -135 c5 0 33 -22 62 -49 41 -37 149
-121 175 -137 2 -1 -36 -55 -84 -121 -85 -114 -243 -363 -245 -387 -1 -6 -5 7
-11 29 -16 72 -22 488 -8 616 l13 117 44 -34 c25 -19 49 -34 54 -34z m484
-146 c21 -14 24 -14 34 3 8 14 10 14 11 3 0 -34 -15 -39 -48 -18 -30 19 -39
28 -27 28 3 0 16 -7 30 -16z m-210 -390 c-32 -136 -57 -221 -102 -349 -38
-111 -102 -255 -113 -255 -3 0 -29 16 -56 35 l-49 35 -11 81 c-9 72 -8 91 11
163 12 45 25 88 30 96 22 37 146 194 224 285 l86 100 3 -41 c2 -22 -9 -89 -23
-150z m243 66 c46 -34 63 -52 66 -75 11 -69 36 -200 64 -345 17 -85 34 -172
37 -194 4 -21 8 -36 10 -34 5 5 -17 145 -49 318 -33 174 -42 265 -24 254 64
-38 165 -112 193 -142 19 -20 47 -62 63 -92 25 -50 27 -64 26 -150 -1 -70 -7
-107 -22 -140 -24 -55 -97 -150 -116 -150 -7 0 -26 19 -42 43 -16 23 -35 49
-43 57 -21 22 -93 178 -140 305 -33 86 -111 370 -111 400 0 8 16 -2 88 -55z
m4036 -310 c19 -85 37 -175 41 -200 5 -40 4 -43 -9 -30 -8 8 -30 44 -50 80
-32 59 -37 78 -46 180 -5 63 -10 126 -10 140 0 24 0 24 20 5 14 -14 30 -67 54
-175z m219 69 c27 -6 51 -18 54 -25 6 -16 -19 -94 -30 -94 -10 -1 -107 119
-107 132 0 5 8 7 18 4 9 -3 39 -10 65 -17z m-4427 -269 c-42 -442 -142 -1112
-191 -1274 -8 -27 -13 -51 -11 -53 6 -6 46 117 46 141 0 22 39 194 76 336 36
141 96 485 82 470 -3 -3 -18 -80 -33 -172 -16 -93 -30 -166 -32 -164 -2 2 7
95 21 207 14 112 31 260 38 329 11 115 13 121 18 70 4 -30 3 -91 -1 -135 -11
-115 -8 -142 6 -55 13 86 11 90 51 -115 30 -158 87 -337 138 -439 l35 -68 -20
-57 c-11 -31 -24 -78 -29 -106 -8 -48 -116 -319 -180 -452 -16 -35 -54 -102
-84 -150 -44 -72 -59 -88 -79 -88 -21 0 -23 3 -17 26 5 16 3 32 -6 43 -11 16
-8 26 25 75 75 112 68 110 -16 -4 -203 -275 -281 -386 -320 -458 -81 -147 -69
-102 24 93 92 191 135 296 181 445 54 173 70 260 84 444 15 209 -11 610 -44
661 -6 11 -8 6 -4 -15 3 -16 13 -102 22 -190 29 -288 10 -594 -50 -810 l-14
-50 -1 99 c-1 79 2 103 15 117 11 12 18 44 22 91 5 68 4 73 -21 93 -26 20 -27
23 -38 220 -15 250 -17 225 20 325 17 47 30 99 30 115 0 19 -9 0 -25 -54 -14
-47 -36 -105 -49 -130 -14 -25 -41 -79 -62 -118 -21 -40 -41 -73 -45 -73 -7 0
-13 53 -10 92 2 19 143 276 177 323 12 17 25 40 29 53 6 17 12 21 31 16 30 -7
39 10 100 187 46 134 85 290 85 339 0 15 3 30 8 34 10 11 24 -149 18 -214z
m304 -256 c67 -88 66 -79 76 -399 l6 -200 -38 60 c-79 128 -138 291 -184 510
-23 111 -60 346 -60 381 0 2 32 -59 71 -136 39 -77 97 -174 129 -216z m405
-36 c0 -240 3 -309 18 -383 23 -118 52 -208 88 -274 16 -30 27 -56 25 -58 -7
-7 -96 108 -118 151 -53 104 -94 274 -118 494 l-11 103 50 102 c27 56 53 115
56 130 4 15 8 27 9 27 0 0 1 -132 1 -292z m-1116 229 c1 -5 -3 -5 -9 -2 -5 3
-10 16 -9 28 0 21 1 21 9 2 5 -11 9 -24 9 -28z m4076 -79 c-4 -40 -18 -143
-31 -228 -82 -511 -90 -669 -48 -907 7 -35 6 -35 -106 -47 -25 -3 -78 -10
-117 -16 -40 -6 -77 -9 -83 -5 -41 26 -143 318 -164 469 -5 39 -3 42 79 127
97 101 156 187 222 326 26 54 54 102 63 107 41 24 129 128 156 183 16 34 30
62 32 62 2 1 0 -32 -3 -71z m-2894 -103 c16 -60 19 -107 19 -320 0 -212 -2
-247 -14 -235 -37 40 -66 354 -51 565 8 121 11 120 46 -10z m-1112 -45 c0 -3
-13 -32 -30 -65 -16 -33 -27 -52 -24 -42 3 10 5 48 5 83 l0 65 25 -18 c13 -10
24 -20 24 -23z m931 -116 c26 -225 71 -386 139 -498 36 -58 37 -64 31 -128 -3
-37 -8 -70 -12 -74 -27 -26 -216 83 -299 172 l-46 50 -7 199 c-3 110 -9 230
-12 266 l-6 67 53 16 c30 9 72 26 94 39 49 28 49 29 65 -109z m244 -111 c13
-59 90 -290 121 -367 7 -16 5 -17 -16 -11 -43 13 -120 55 -124 68 -7 20 -10
397 -4 389 4 -4 14 -39 23 -79z m143 -233 c33 -58 71 -123 84 -145 43 -69 45
-71 28 -59 -8 6 -35 18 -60 28 l-47 17 -45 127 c-41 115 -98 307 -97 328 1 5
18 -36 39 -91 21 -55 65 -147 98 -205z m2908 -51 c42 -150 75 -236 135 -355
l55 -111 -111 -11 c-61 -7 -120 -12 -131 -12 -44 0 -143 229 -143 332 0 66 13
113 81 306 l54 153 16 -104 c9 -57 29 -146 44 -198z m-4226 -49 c6 -69 14
-147 17 -175 l5 -50 -44 47 c-34 36 -48 61 -60 109 l-16 63 41 69 c22 38 41
67 43 65 2 -2 8 -59 14 -128z m268 88 c-3 -7 -5 -2 -5 12 0 14 2 19 5 13 2 -7
2 -19 0 -25z m1117 -196 l89 -37 36 -100 c20 -55 40 -106 44 -112 15 -24 -14
-13 -154 58 -153 77 -184 105 -237 214 -53 108 -54 108 45 58 49 -24 128 -60
177 -81z m2055 -64 c-2 -95 -2 -218 0 -272 l4 -100 -68 -23 c-152 -51 -237
-66 -329 -58 l-86 7 0 58 c0 64 -2 65 -97 90 -34 8 -51 23 -94 76 l-52 66 9
76 9 76 50 -4 c28 -3 124 -5 215 -5 217 0 236 6 348 106 48 43 89 78 91 79 2
0 2 -78 0 -172z m-2836 -249 c2 -299 0 -333 -20 -441 -31 -159 -66 -265 -126
-383 -47 -93 -61 -110 -193 -240 -118 -116 -143 -146 -149 -177 -5 -26 -20
-49 -48 -74 l-40 -37 -19 24 c-63 80 -92 184 -84 301 3 49 11 98 17 110 6 11
48 71 94 132 46 62 131 186 190 276 59 91 112 169 116 175 21 22 -48 -291 -72
-330 -10 -17 -90 -102 -178 -188 -88 -86 -157 -157 -154 -157 9 0 217 186 269
241 97 104 115 153 155 419 8 56 31 122 89 255 74 171 130 348 130 410 0 20 3
26 11 18 6 -6 11 -124 12 -334z m127 85 c0 -83 2 -187 5 -230 l5 -79 -21 105
c-57 286 -78 386 -84 402 -5 13 6 9 44 -15 l51 -32 0 -151z m2761 88 c12 -46
41 -122 65 -170 25 -51 38 -89 32 -93 -16 -10 -119 -31 -125 -26 -3 3 -7 97
-9 209 -5 216 -2 222 37 80z m-2268 -9 c13 -40 13 -44 -2 -38 -9 4 -37 12 -64
18 -43 11 -47 14 -43 37 3 14 8 42 11 64 l6 39 39 -38 c21 -21 45 -57 53 -82z
m-559 -128 c56 -303 66 -385 66 -543 l0 -149 -107 -91 c-60 -50 -130 -110
-158 -134 l-50 -43 23 35 c77 119 131 262 165 439 20 103 22 148 22 404 0 158
1 284 2 280 1 -5 18 -93 37 -198z m638 115 c19 0 75 -48 81 -70 7 -26 1 -25
-67 5 -55 24 -61 32 -81 94 l-8 25 32 -27 c18 -15 37 -27 43 -27z m279 -189
l16 -50 -46 41 c-25 22 -70 54 -98 70 -29 17 -53 34 -53 38 0 5 -3 15 -6 23
-3 9 27 -1 82 -28 86 -43 89 -45 105 -94z m-380 52 c76 -45 77 -46 88 -101 22
-109 9 -147 -63 -184 -47 -24 -132 -86 -188 -136 -32 -29 -39 -32 -44 -17 -4
9 12 91 35 183 34 142 61 272 61 306 0 12 26 0 111 -51z m3461 -49 c25 -3 54
-11 62 -17 13 -9 -72 -12 -364 -12 -209 0 -370 3 -357 6 23 6 236 26 347 33
63 4 243 -2 312 -10z m-3299 -44 l47 -30 0 -84 c0 -71 -6 -102 -41 -207 -22
-68 -42 -125 -43 -126 -1 -1 0 59 2 133 4 116 -6 244 -25 322 -7 29 4 28 60
-8z m2570 3 c-7 -2 -19 -2 -25 0 -7 3 -2 5 12 5 14 0 19 -2 13 -5z m788 -136
c-23 -212 -74 -528 -85 -517 -14 14 -18 50 -5 50 5 0 7 5 4 11 -5 7 -14 4 -28
-8 -12 -10 -19 -14 -16 -10 4 5 -4 20 -17 34 -13 14 -21 29 -18 34 6 11 -15
53 -23 45 -3 -3 0 -12 7 -21 8 -10 9 -15 1 -15 -6 0 -11 5 -11 11 0 5 -4 8 -8
5 -14 -8 -7 47 9 72 7 12 19 22 26 22 7 0 10 7 6 16 -5 13 -8 13 -15 2 -6 -9
-7 -3 -3 17 4 17 11 32 16 33 5 2 15 9 22 16 7 7 17 11 24 9 6 -2 14 1 18 6 3
6 11 11 17 11 6 0 1 -9 -12 -20 -13 -11 -31 -20 -41 -20 -10 0 -21 -5 -25 -12
-5 -8 -2 -9 9 -5 10 3 17 2 17 -3 0 -6 -4 -10 -10 -10 -19 0 -10 -16 10 -17
11 -1 18 2 15 7 -3 5 -1 11 5 15 6 4 8 11 5 16 -4 5 -1 9 4 9 6 0 11 -6 11
-14 0 -8 6 -16 13 -19 6 -3 -1 -10 -17 -16 -18 -7 -26 -16 -23 -25 3 -8 1 -17
-6 -19 -9 -3 -8 -8 2 -20 10 -13 17 -15 27 -6 8 6 11 15 8 20 -3 5 2 12 11 15
9 4 14 13 11 20 -3 7 1 17 8 21 8 5 17 35 20 68 4 33 9 71 11 85 2 14 9 75 16
135 7 61 15 102 17 92 2 -10 -1 -64 -7 -120z m-480 82 l24 -20 -30 17 c-39 24
-40 24 -28 24 6 0 21 -9 34 -21z m-2730 -68 c37 -38 81 -93 97 -122 28 -47 31
-50 41 -31 6 11 11 28 11 36 0 28 15 17 32 -26 10 -23 17 -42 15 -43 -6 -5
-228 -47 -231 -44 -2 2 -14 24 -27 49 -21 39 -24 59 -24 147 0 57 4 103 9 103
5 0 39 -31 77 -69z m1404 39 c3 -5 3 -15 -1 -21 -6 -11 -23 6 -24 24 0 10 18
9 25 -3z m1615 -4 c9 -12 9 -45 0 -148 -6 -73 -13 -134 -16 -137 -6 -7 -4 44
6 154 6 55 7 107 4 117 -4 15 -21 18 -102 21 l-97 3 96 2 c74 2 99 -1 109 -12z
m-227 -3 c-7 -2 -19 -2 -25 0 -7 3 -2 5 12 5 14 0 19 -2 13 -5z m70 -70 c-32
-26 -64 -54 -71 -62 -12 -14 -12 -14 -4 2 9 19 111 106 125 107 4 0 -18 -21
-50 -47z m126 25 c-1 -16 -3 -18 -6 -6 -2 9 -16 19 -31 21 -24 4 -24 4 6 6 27
1 32 -2 31 -21z m-532 6 c-3 -3 -12 -4 -19 -1 -8 3 -5 6 6 6 11 1 17 -2 13 -5z
m-2648 -154 c0 -184 -33 -324 -106 -449 l-25 -43 -30 43 c-16 24 -40 65 -53
90 l-24 46 112 228 c111 225 112 227 119 189 4 -22 7 -68 7 -104z m2648 124
c-3 -3 -12 -4 -19 -1 -8 3 -5 6 6 6 11 1 17 -2 13 -5z m-75 -11 c-19 -4 -8
-16 80 -94 57 -49 106 -89 110 -89 4 0 14 12 22 28 8 15 15 22 16 17 0 -14
-29 -55 -39 -55 -5 0 -53 39 -107 86 -138 120 -129 110 -92 111 20 0 24 -1 10
-4z m302 -13 c77 -29 84 -40 53 -93 -14 -23 -48 -64 -76 -90 -45 -42 -54 -46
-72 -36 l-21 11 21 14 c46 33 63 107 42 182 -5 17 -8 32 -6 32 2 0 29 -9 59
-20z m276 -47 c-12 -8 -49 -38 -83 -67 -34 -28 -84 -69 -112 -90 l-50 -38 50
46 c28 25 85 74 128 108 48 39 78 69 78 82 2 18 2 18 6 -2 3 -17 -2 -29 -17
-39z m-1543 5 c-3 -8 -6 -5 -6 6 -1 11 2 17 5 13 3 -3 4 -12 1 -19z m729 6 c2
-19 17 -44 27 -44 5 0 2 9 -8 20 -38 41 3 18 45 -26 25 -26 38 -43 30 -38 -8
5 -49 12 -90 16 -41 3 -106 15 -144 26 l-68 19 93 21 c97 21 113 22 115 6z
m-2457 -97 c-13 -26 -26 -47 -29 -47 -3 0 -12 16 -19 36 -13 35 -12 37 15 60
24 18 31 20 42 10 11 -11 9 -21 -9 -59z m3080 31 c-20 -37 -70 -96 -88 -103
-9 -3 3 13 25 37 23 24 47 53 53 66 7 12 14 22 17 22 2 0 -1 -10 -7 -22z
m-2685 -362 c97 -192 174 -351 172 -353 -5 -6 -117 170 -169 267 -75 139 -218
476 -189 445 5 -5 89 -167 186 -359z m155 271 c11 -18 31 -43 45 -56 19 -18
24 -31 20 -50 -12 -61 -89 -341 -94 -341 -5 0 -220 425 -220 435 0 3 10 4 23
4 16 -1 18 -2 5 -6 -16 -4 -16 -7 -3 -33 11 -21 20 -27 36 -23 11 3 23 11 25
17 3 7 18 11 34 10 17 -1 33 2 36 7 3 5 16 9 29 9 13 0 26 6 28 13 4 9 8 8 16
-3 10 -13 11 -13 11 0 0 36 -15 43 -69 31 -70 -15 -89 -12 -26 4 74 19 82 18
104 -18z m3026 -34 c22 -31 72 -89 111 -129 l70 -73 -21 -233 -20 -233 -110 4
c-154 5 -155 5 -155 88 0 38 5 113 10 168 13 136 62 465 69 465 3 -1 24 -26
46 -57z m-3705 -25 c17 -35 30 -68 30 -75 0 -17 -22 -63 -30 -63 -4 0 -20 38
-36 84 -24 71 -26 87 -15 100 7 9 15 16 18 16 2 0 17 -28 33 -62z m513 55 c-7
-2 -19 -2 -25 0 -7 3 -2 5 12 5 14 0 19 -2 13 -5z m2747 4 c0 -2 -12 -14 -27
-28 l-28 -24 24 28 c23 25 31 32 31 24z m186 -32 c-3 -15 0 -25 7 -25 8 0 7
-3 -2 -9 -8 -5 -17 -36 -21 -72 -9 -81 -12 -27 -3 64 3 37 10 67 15 67 4 0 6
-11 4 -25z m-265 -39 c-13 -14 -20 -29 -17 -35 12 -19 199 -172 204 -166 3 2
8 22 12 42 7 34 8 35 8 8 0 -16 -3 -41 -7 -54 -6 -22 -11 -19 -107 60 -127
105 -133 113 -103 145 12 13 25 24 27 24 3 0 -5 -11 -17 -24z m-4077 -35 c-29
-44 -42 -55 -23 -18 22 40 42 68 46 63 3 -2 -8 -23 -23 -45z m1797 -66 c41
-19 91 -38 112 -41 40 -7 48 -19 19 -28 -18 -6 -79 -79 -229 -274 l-72 -93
-32 62 -31 63 47 180 c26 100 49 187 51 194 3 10 11 8 33 -7 16 -11 62 -37
102 -56z m-2431 19 c0 -36 37 -168 61 -219 13 -27 50 -77 82 -112 l60 -64 -26
-87 c-15 -48 -29 -99 -33 -114 -3 -16 -10 -28 -16 -28 -20 0 -111 103 -133
153 -34 74 -49 175 -42 282 8 125 28 239 38 223 5 -7 9 -22 9 -34z m1842 -88
c74 -148 203 -371 284 -488 75 -110 112 -173 97 -167 -104 46 -152 92 -230
219 -25 41 -56 89 -68 105 -12 17 -57 95 -100 174 l-78 143 17 54 c9 30 20 54
24 54 4 0 29 -42 54 -94z m2819 60 c48 -33 65 -75 51 -124 -12 -38 -59 -94
-95 -114 -17 -9 -19 -8 -12 8 23 56 28 107 16 165 -6 33 -14 66 -18 74 -8 22
18 18 58 -9z m-51 -114 c-1 -75 -37 -139 -93 -169 -16 -8 -27 -17 -24 -19 7
-8 70 21 85 38 7 9 20 14 30 11 10 -2 34 11 59 32 l41 35 92 -77 92 -78 3 -72
c2 -65 0 -72 -18 -75 -29 -4 -39 -48 -34 -143 2 -44 2 -163 -2 -264 l-6 -183
-61 78 c-56 73 -108 185 -109 234 0 8 -13 48 -29 88 -28 70 -29 74 -13 101 23
40 42 159 31 196 -8 26 -9 21 -12 -37 -3 -59 -6 -70 -29 -88 -30 -24 -75 -26
-93 -5 -7 9 -58 41 -114 72 -56 31 -103 58 -105 60 -2 2 23 31 55 65 77 81
119 142 135 198 7 25 19 53 27 62 14 16 17 16 53 -13 22 -17 39 -38 39 -47z
m-3481 -20 c-35 -33 -95 -86 -133 -118 -38 -32 -121 -104 -185 -159 l-116 -99
75 79 c41 44 96 100 124 125 71 65 290 238 295 234 2 -2 -25 -30 -60 -62z
m1707 -13 c131 -34 217 -90 358 -234 129 -132 163 -175 185 -242 28 -82 27
-87 -11 -67 -88 45 -251 105 -313 115 -85 14 -348 5 -490 -16 -55 -8 -121 -15
-147 -15 -45 0 -47 1 -77 51 l-32 50 48 67 c119 170 205 260 277 293 53 24
104 24 202 -2z m-1106 -164 c0 -12 -17 5 -44 44 -15 22 -25 45 -21 51 4 7 19
-8 36 -39 16 -28 29 -53 29 -56z m1341 78 c13 -16 12 -17 -3 -4 -17 13 -22 21
-14 21 2 0 10 -8 17 -17z m40 -30 c13 -16 12 -17 -3 -4 -10 7 -18 15 -18 17 0
8 8 3 21 -13z m60 0 c13 -16 12 -17 -3 -4 -10 7 -18 15 -18 17 0 8 8 3 21 -13z
m40 -30 c13 -16 12 -17 -3 -4 -17 13 -22 21 -14 21 2 0 10 -8 17 -17z m2965
-8 c48 -9 90 -17 92 -19 1 -2 -2 -23 -7 -47 -6 -24 -13 -66 -16 -92 l-6 -48
-27 51 c-14 28 -51 78 -82 111 -30 32 -53 59 -49 59 3 0 46 -7 95 -15z m-2961
-55 c27 -27 47 -50 44 -50 -3 0 -27 23 -54 50 -27 28 -47 50 -44 50 3 0 27
-22 54 -50z m40 30 c10 -11 16 -20 13 -20 -3 0 -13 9 -23 20 -10 11 -16 20
-13 20 3 0 13 -9 23 -20z m85 -75 c30 -30 52 -55 49 -55 -2 0 -29 25 -59 55
-30 30 -52 55 -49 55 2 0 29 -25 59 -55z m-44 -47 l29 -33 -32 29 c-31 28 -38
36 -30 36 2 0 16 -15 33 -32z m1102 -73 c40 -19 71 -39 68 -44 -4 -5 -30 -15
-59 -21 -67 -14 -142 -2 -141 23 0 9 1 33 2 53 2 34 4 36 29 29 15 -3 61 -22
101 -40z m-601 -11 c-3 -3 -12 -4 -19 -1 -8 3 -5 6 6 6 11 1 17 -2 13 -5z
m1466 -10 c59 -4 107 -11 107 -17 0 -6 -26 -7 -67 -3 -109 11 -223 28 -223 33
0 3 17 3 38 0 20 -4 85 -9 145 -13z m-1638 -18 l80 -12 3 -58 c2 -33 -1 -63
-6 -68 -8 -8 -125 13 -168 31 -22 10 -60 103 -49 121 3 5 18 7 33 4 15 -3 63
-11 107 -18z m302 -2 c-3 -3 -12 -4 -19 -1 -8 3 -5 6 6 6 11 1 17 -2 13 -5z
m-822 -43 c89 -24 80 -20 335 -139 118 -55 292 -131 385 -170 200 -82 305
-129 305 -136 0 -8 -71 15 -153 51 -45 20 -118 51 -162 70 -44 20 -183 72
-310 117 l-229 83 -31 -38 c-34 -42 -44 -44 -145 -29 -82 13 -102 20 -98 30 2
5 25 31 51 59 47 50 48 51 25 60 -13 5 -41 16 -63 26 l-40 16 -50 -55 -51 -56
-92 38 c-51 21 -94 41 -98 44 -3 3 32 11 78 17 46 6 110 15 143 20 93 13 124
12 200 -8z m775 -8 l60 -16 0 -39 c0 -21 7 -54 14 -73 14 -32 14 -35 -2 -34
-9 0 -44 10 -77 22 l-60 22 -1 68 c-1 37 0 67 2 67 2 0 31 -7 64 -17z m-3332
-97 c-18 -24 -37 -41 -41 -39 -7 4 60 83 70 83 2 0 -11 -20 -29 -44z m2032
-11 l65 -34 -67 -1 c-61 0 -68 2 -68 19 0 11 -3 26 -6 35 -9 22 2 20 76 -19z
m1076 -65 c121 -25 174 -41 174 -51 0 -5 -12 -15 -27 -23 -26 -13 -35 -11
-128 30 -138 61 -142 63 -129 63 7 1 56 -8 110 -19z m-1789 -40 c24 -9 38 -24
52 -53 10 -23 39 -71 65 -107 l45 -65 -23 -12 c-13 -7 -67 -29 -121 -49 l-98
-36 -18 23 c-11 13 -39 63 -64 111 -40 77 -44 91 -34 110 7 13 19 28 28 35 14
10 14 14 -6 41 -12 16 -20 32 -18 34 7 6 154 -18 192 -32z m2661 -15 c-3 -3
-29 -15 -100 -47 -13 -5 -21 -1 -28 12 -9 18 -4 23 52 48 61 28 63 28 71 9 4
-11 6 -21 5 -22z m-2426 -69 c19 -8 42 -26 51 -40 16 -24 16 -26 -10 -45 -14
-12 -31 -21 -37 -21 -7 0 -29 30 -49 66 -41 73 -39 75 45 40z m2458 6 c0 -6
-68 -43 -110 -60 -4 -2 -10 4 -13 12 -4 11 8 20 46 35 56 22 77 25 77 13z
m-2160 -23 c0 -5 -4 -9 -10 -9 -5 0 -10 7 -10 16 0 8 5 12 10 9 6 -3 10 -10
10 -16z m2183 -62 c15 -28 76 -131 136 -227 59 -96 107 -176 106 -178 -1 -1
-23 9 -48 23 -50 28 -80 74 -199 302 -46 90 -57 118 -46 124 20 13 21 12 51
-44z m-1953 3 c0 -4 -11 -17 -24 -29 -23 -22 -25 -22 -50 -6 -18 12 -26 26
-26 45 l0 28 50 -16 c28 -9 50 -19 50 -22z m1886 -132 c32 -72 61 -136 63
-141 2 -6 -16 1 -39 14 -41 23 -45 29 -82 133 -30 85 -36 111 -26 118 7 4 16
8 19 8 3 0 32 -59 65 -132z m-1695 65 c27 -14 49 -29 49 -33 0 -4 -36 -15 -80
-25 -105 -24 -121 -13 -65 45 21 22 41 40 43 40 2 0 26 -12 53 -27z m-552 -8
l81 -26 0 -36 c0 -29 -3 -34 -17 -29 -9 4 -55 16 -102 28 -47 12 -92 22 -98
24 -16 4 -17 36 -1 52 18 18 48 15 137 -13z m122 -67 c-3 -83 -21 -121 -21
-42 0 58 11 127 18 119 3 -3 4 -38 3 -77z m-1210 -79 c14 -27 7 -23 -32 17
-31 34 -32 35 -6 19 15 -10 32 -26 38 -36z m3070 -10 l89 -21 0 -36 c0 -20 9
-57 20 -81 11 -24 20 -45 20 -46 0 -2 -39 17 -87 42 -137 72 -228 137 -217
154 9 15 83 10 175 -12z m-1869 -106 c-3 -108 -7 -127 -22 -118 -6 4 -8 42 -4
98 6 100 9 117 21 117 4 0 7 -44 5 -97z m-1222 -43 c-21 -63 -39 -110 -40
-105 -1 15 74 238 77 228 1 -4 -15 -60 -37 -123z"/>
<path d="M950 5215 c14 -7 43 -16 64 -20 37 -7 37 -7 24 14 -10 17 -22 21 -63
21 -48 -1 -49 -1 -25 -15z"/>
<path d="M755 4729 c5 -8 21 -30 37 -51 27 -34 30 -35 58 -25 53 20 42 31 -89
85 -10 4 -12 1 -6 -9z"/>
<path d="M816 4035 c2 -56 9 -114 14 -130 11 -37 2 130 -11 190 -6 27 -7 7 -3
-60z"/>
<path d="M1306 2113 c-6 -14 -5 -15 5 -6 7 7 10 15 7 18 -3 3 -9 -2 -12 -12z"/>
<path d="M1180 1870 c-6 -11 -8 -20 -6 -20 3 0 10 9 16 20 6 11 8 20 6 20 -3
0 -10 -9 -16 -20z"/>
<path d="M4606 2620 c3 -63 11 -144 19 -180 l14 -65 -6 65 c-3 36 -12 117 -19
180 l-13 115 5 -115z"/>
<path d="M4641 2344 c0 -11 3 -14 6 -6 3 7 2 16 -1 19 -3 4 -6 -2 -5 -13z"/>
<path d="M4652 2300 c0 -14 2 -19 5 -12 2 6 2 18 0 25 -3 6 -5 1 -5 -13z"/>
<path d="M4661 2254 c0 -11 3 -14 6 -6 3 7 2 16 -1 19 -3 4 -6 -2 -5 -13z"/>
<path d="M4672 2220 c0 -8 6 -31 13 -50 7 -19 13 -28 13 -20 0 8 -6 31 -13 50
-7 19 -13 28 -13 20z"/>
<path d="M1172 1272 c-42 -148 -95 -270 -167 -378 -31 -47 -54 -88 -51 -91 3
-4 7 -4 9 -2 1 2 22 32 46 67 74 108 144 274 186 440 28 112 11 85 -23 -36z"/>
<path d="M5483 1588 c-1 -10 2 -18 6 -18 5 0 11 8 13 18 3 10 0 19 -6 19 -7 0
-13 -9 -13 -19z"/>
<path d="M5504 1555 c-19 -15 -19 -15 0 -8 15 5 18 3 13 -10 -7 -20 8 -23 17
-4 4 6 5 3 2 -9 -2 -13 4 -26 18 -34 18 -11 19 -11 9 1 -7 8 -10 25 -6 37 4
18 1 22 -16 22 -12 0 -19 5 -16 10 9 14 2 12 -21 -5z"/>
<path d="M5500 1491 c0 -13 29 -35 37 -27 3 3 1 6 -5 6 -7 0 -12 7 -12 15 0 8
-4 15 -10 15 -5 0 -10 -4 -10 -9z"/>
<path d="M4503 1813 c-32 -6 -18 -28 17 -27 35 1 54 14 21 14 -12 0 -19 4 -16
10 3 6 5 9 3 9 -2 -1 -13 -4 -25 -6z"/>
<path d="M3661 1075 c0 -5 11 -30 24 -55 13 -25 24 -40 24 -35 0 6 -11 30 -24
55 -13 25 -24 41 -24 35z"/>
<path d="M3710 965 c0 -5 5 -17 10 -25 5 -8 10 -10 10 -5 0 6 -5 17 -10 25 -5
8 -10 11 -10 5z"/>
<path d="M3579 6259 c35 -16 66 -28 68 -26 4 5 -111 57 -123 57 -5 -1 20 -14
55 -31z"/>
<path d="M2289 6123 l-24 -28 28 24 c25 23 32 31 24 31 -2 0 -14 -12 -28 -27z"/>
<path d="M4379 6103 c18 -15 77 -63 130 -105 122 -97 418 -398 534 -543 138
-173 273 -377 397 -600 27 -49 22 -43 -123 138 -59 74 -115 141 -124 149 -9 7
51 -72 133 -177 82 -104 167 -214 188 -243 21 -29 41 -50 44 -47 3 3 -4 19
-16 35 -24 31 -30 52 -10 32 21 -21 27 -13 17 26 -32 125 -28 118 -79 142 -27
13 -51 29 -54 37 -3 7 -44 73 -91 145 l-86 131 65 -6 66 -6 -33 52 c-31 49
-36 52 -78 55 l-46 3 5 52 4 52 -83 88 c-66 71 -84 86 -91 73 -6 -11 0 -25 22
-50 18 -19 41 -51 52 -71 17 -33 17 -37 3 -31 -9 3 -24 6 -34 6 -10 0 -50 38
-89 84 -40 47 -140 155 -222 241 -83 86 -150 162 -150 169 0 12 -104 86 -230
163 -48 30 -51 30 -21 6z"/>
<path d="M3900 6076 c0 -2 8 -10 18 -17 15 -13 16 -12 3 4 -13 16 -21 21 -21
13z"/>
<path d="M3940 6046 c0 -2 8 -10 18 -17 15 -13 16 -12 3 4 -13 16 -21 21 -21
13z"/>
<path d="M3485 5990 c21 -22 41 -40 44 -40 3 0 -13 18 -34 40 -21 22 -41 40
-44 40 -3 0 13 -18 34 -40z"/>
<path d="M3995 6000 c10 -11 20 -20 23 -20 3 0 -3 9 -13 20 -10 11 -20 20 -23
20 -3 0 3 -9 13 -20z"/>
<path d="M2139 5973 c-13 -16 -12 -17 4 -4 9 7 17 15 17 17 0 8 -8 3 -21 -13z"/>
<path d="M4045 5960 c10 -11 20 -20 23 -20 3 0 -3 9 -13 20 -10 11 -20 20 -23
20 -3 0 3 -9 13 -20z"/>
<path d="M2094 5918 l-19 -23 23 19 c21 18 27 26 19 26 -2 0 -12 -10 -23 -22z"/>
<path d="M4185 5830 c60 -60 112 -110 115 -110 2 0 -45 50 -105 110 -60 61
-112 110 -115 110 -2 0 45 -49 105 -110z"/>
<path d="M2059 5873 c-13 -16 -12 -17 4 -4 9 7 17 15 17 17 0 8 -8 3 -21 -13z"/>
<path d="M3768 5630 c53 -96 74 -130 79 -130 7 0 -58 115 -80 142 -18 22 -18
21 1 -12z"/>
<path d="M2861 5355 c-1 -22 4 -126 11 -231 11 -184 11 -199 -15 -415 -27
-229 -47 -406 -72 -654 -8 -77 -19 -165 -24 -195 -18 -103 -23 -178 -13 -196
12 -22 15 -1 32 211 20 243 26 277 58 303 23 21 24 22 4 12 -13 -6 -26 -10
-28 -8 -12 12 84 628 98 628 4 0 8 -7 8 -15 0 -19 167 -338 209 -398 17 -25
31 -48 31 -50 0 -3 -35 -20 -77 -37 -92 -38 -213 -98 -213 -105 0 -3 27 9 61
25 75 38 208 90 230 90 16 0 129 -135 255 -305 93 -126 199 -224 284 -264 l25
-12 -25 18 c-149 108 -182 141 -292 297 -39 54 -101 137 -139 184 -63 78 -67
86 -51 98 18 14 16 15 -26 18 -21 2 -111 144 -178 281 -94 195 -110 252 -124
440 -16 219 -27 328 -29 280z"/>
<path d="M5340 5312 c0 -4 15 -30 34 -57 l34 -51 81 -11 c108 -16 233 -60 304
-107 48 -32 57 -42 51 -60 -15 -46 -108 -228 -119 -233 -7 -2 -50 14 -95 37
-62 31 -81 37 -76 24 3 -9 12 -46 19 -82 9 -51 17 -68 37 -80 14 -9 26 -17 28
-18 8 -5 -24 -44 -36 -44 -7 0 2 -21 23 -52 19 -29 35 -61 35 -71 0 -57 49
-93 209 -153 108 -41 92 -26 -24 21 -60 25 -111 45 -112 45 -7 0 -63 85 -63
95 0 7 18 20 40 30 22 10 45 24 51 32 19 22 41 15 159 -53 155 -90 245 -152
306 -210 46 -44 55 -59 84 -149 17 -55 43 -122 56 -149 l25 -49 -53 -54 -52
-53 -66 0 c-103 0 -276 56 -290 95 -4 11 -25 70 -47 131 l-39 110 95 12 c106
14 194 48 236 92 33 34 19 46 -32 29 -22 -7 -66 -10 -112 -7 -60 5 -69 4 -41
-4 37 -10 151 -6 185 6 11 4 -4 -8 -34 -28 -88 -58 -139 -71 -276 -71 -104 0
-132 4 -210 29 -93 29 -184 72 -221 103 -11 10 -60 101 -109 203 -48 102 -90
187 -92 190 -14 14 16 -59 74 -180 125 -260 202 -463 238 -632 l19 -87 46 -20
c69 -29 188 -63 202 -58 8 3 6 6 -4 6 -15 1 -18 11 -18 62 0 66 -31 228 -60
317 -10 31 -17 58 -16 60 2 2 26 0 54 -4 49 -6 51 -8 73 -58 59 -137 115 -347
102 -383 -3 -6 -17 -13 -31 -15 -20 -3 -13 -7 31 -17 78 -17 171 -2 273 45 44
20 118 54 166 77 l87 40 68 -28 c162 -66 210 -69 268 -17 23 20 50 42 61 48
32 20 4 35 -108 60 -57 12 -116 28 -133 34 l-30 12 46 41 c61 56 194 130 285
159 l74 23 0 53 0 52 -47 0 c-90 -1 -186 -20 -233 -47 -25 -14 -87 -68 -139
-120 -52 -51 -95 -92 -96 -91 -1 2 -9 24 -18 49 -18 55 -72 143 -131 212 -53
64 -191 174 -343 276 l-122 81 14 39 c27 78 55 232 55 306 0 72 -1 77 -36 115
-20 22 -59 51 -87 64 -78 38 -231 76 -332 82 -49 3 -102 7 -117 9 -16 3 -28 1
-28 -3z m220 -1041 c52 -22 103 -41 112 -41 11 0 23 -19 37 -62 27 -85 40
-138 35 -138 -13 0 -224 124 -236 138 -13 15 -68 136 -68 149 0 3 6 3 13 0 6
-3 55 -24 107 -46z m24 -292 c26 -20 100 -122 112 -154 5 -13 -3 -12 -47 5
-30 12 -58 25 -63 30 -12 12 -46 140 -37 140 5 0 20 -9 35 -21z m127 -78 c58
-34 64 -42 67 -75 5 -63 -39 -43 -98 44 -57 85 -57 85 31 31z m394 -122 l70
-1 -50 -13 c-27 -7 -76 -14 -107 -14 -53 -1 -58 1 -58 20 0 19 4 21 38 15 20
-3 69 -6 107 -7z"/>
<path d="M1967 5113 c-40 -163 -58 -256 -56 -287 1 -12 12 32 24 97 13 65 35
166 50 224 14 58 24 108 21 110 -2 2 -20 -62 -39 -144z"/>
<path d="M5150 5185 c13 -14 26 -25 28 -25 3 0 -5 11 -18 25 -13 14 -26 25
-28 25 -3 0 5 -11 18 -25z"/>
<path d="M4061 5108 c24 -48 45 -86 47 -84 4 5 -66 148 -79 161 -6 5 9 -29 32
-77z"/>
<path d="M2574 4825 c0 -66 1 -92 3 -57 2 34 2 88 0 120 -2 31 -3 3 -3 -63z"/>
<path d="M4810 4935 c0 -5 5 -17 10 -25 5 -8 10 -10 10 -5 0 6 -5 17 -10 25
-5 8 -10 11 -10 5z"/>
<path d="M5198 4835 c31 -45 111 -131 111 -120 0 6 -30 42 -66 80 -36 39 -57
57 -45 40z"/>
<path d="M4395 4800 c-8 -13 15 -13 35 0 12 8 11 10 -7 10 -12 0 -25 -4 -28
-10z"/>
<path d="M1902 4775 c0 -16 2 -22 5 -12 2 9 2 23 0 30 -3 6 -5 -1 -5 -18z"/>
<path d="M1892 4720 c0 -14 2 -19 5 -12 2 6 2 18 0 25 -3 6 -5 1 -5 -13z"/>
<path d="M5380 4640 c67 -61 175 -139 178 -129 6 16 -16 36 -102 96 -94 64
-126 78 -76 33z"/>
<path d="M2586 4460 c3 -63 9 -131 13 -150 13 -53 12 -6 -4 140 l-14 125 5
-115z"/>
<path d="M3420 4547 c0 -33 123 -370 169 -463 61 -125 163 -285 202 -319 13
-11 7 0 -13 25 -53 67 -120 174 -167 267 -39 80 -101 236 -101 257 0 6 28 -17
63 -50 137 -134 364 -299 437 -319 14 -3 -1 7 -33 24 -91 47 -185 118 -270
202 -42 43 -97 92 -122 110 -68 49 -110 110 -131 187 -14 57 -34 102 -34 79z"/>
<path d="M3940 4545 c0 -3 14 -33 31 -66 17 -34 28 -68 25 -76 -3 -8 -1 -11 4
-8 6 3 10 -1 10 -11 0 -30 111 -187 184 -260 39 -38 89 -79 111 -90 l40 -19
-56 -3 c-67 -3 -69 -7 -69 -122 0 -82 21 -186 46 -228 8 -15 12 -18 9 -7 -23
65 -35 126 -35 171 0 47 4 56 45 102 54 60 85 74 156 70 l54 -3 5 -80 5 -80 7
75 c3 41 3 92 0 114 -7 36 -14 43 -97 93 -146 89 -333 255 -424 376 -41 54
-51 64 -51 52z m245 -275 c50 -40 94 -77 99 -81 6 -5 2 -18 -11 -31 -27 -30
-40 -53 -25 -44 7 4 12 3 12 -3 0 -23 -21 -20 -52 8 l-33 30 35 38 35 38 -35
-32 c-20 -18 -39 -33 -42 -33 -10 0 -111 159 -137 215 l-23 50 44 -41 c23 -22
84 -74 133 -114z m196 -151 c19 -10 18 -12 -17 -40 -20 -16 -43 -29 -50 -29
-27 0 -24 21 8 49 38 35 34 34 59 20z"/>
<path d="M5570 4495 c0 -6 56 -35 67 -35 4 0 -5 9 -22 20 -29 19 -45 25 -45
15z"/>
<path d="M3960 4450 c11 -22 23 -40 25 -40 3 0 -4 18 -15 40 -11 22 -23 40
-25 40 -3 0 4 -18 15 -40z"/>
<path d="M1581 4444 c0 -11 3 -14 6 -6 3 7 2 16 -1 19 -3 4 -6 -2 -5 -13z"/>
<path d="M1572 4350 c0 -14 2 -19 5 -12 2 6 2 18 0 25 -3 6 -5 1 -5 -13z"/>
<path d="M1908 4324 c-5 -4 -8 -46 -8 -93 0 -106 27 -441 36 -450 4 -3 3 32
-1 79 -4 47 -11 172 -14 278 -3 107 -9 190 -13 186z"/>
<path d="M2612 4250 c0 -14 2 -19 5 -12 2 6 2 18 0 25 -3 6 -5 1 -5 -13z"/>
<path d="M2622 4190 c0 -14 2 -19 5 -12 2 6 2 18 0 25 -3 6 -5 1 -5 -13z"/>
<path d="M3815 4170 c10 -11 20 -20 23 -20 3 0 -3 9 -13 20 -10 11 -20 20 -23
20 -3 0 3 -9 13 -20z"/>
<path d="M4470 4142 c0 -5 17 -24 37 -43 21 -18 28 -22 15 -8 -12 14 -22 30
-22 36 0 6 -7 13 -15 17 -8 3 -15 2 -15 -2z"/>
<path d="M3916 4063 c45 -43 97 -86 115 -96 l34 -18 -30 23 c-39 30 -114 102
-96 93 25 -14 186 -55 211 -54 14 0 -9 9 -50 20 -125 32 -199 60 -233 86 -18
14 5 -10 49 -54z"/>
<path d="M4530 4116 c14 -9 32 -15 40 -15 13 0 13 1 0 8 -8 5 -26 12 -40 15
l-25 7 25 -15z"/>
<path d="M5170 4095 c13 -14 26 -25 28 -25 3 0 -5 11 -18 25 -13 14 -26 25
-28 25 -3 0 5 -11 18 -25z"/>
<path d="M4598 4093 c6 -2 18 -2 25 0 6 3 1 5 -13 5 -14 0 -19 -2 -12 -5z"/>
<path d="M2341 4038 c-1 -12 31 -89 35 -85 3 2 -4 24 -15 48 -11 24 -20 41
-20 37z"/>
<path d="M4193 4004 c3 -4 -5 -28 -19 -55 -13 -27 -21 -49 -17 -48 5 0 20 25
35 55 22 45 24 54 11 54 -9 0 -14 -3 -10 -6z"/>
<path d="M5317 3989 c7 -7 15 -10 18 -7 3 3 -2 9 -12 12 -14 6 -15 5 -6 -5z"/>
<path d="M4080 3931 c0 -8 41 -23 47 -17 2 1 -8 8 -22 14 -14 6 -25 8 -25 3z"/>
<path d="M4662 3840 c0 -14 2 -19 5 -12 2 6 2 18 0 25 -3 6 -5 1 -5 -13z"/>
<path d="M4491 3794 c0 -11 3 -14 6 -6 3 7 2 16 -1 19 -3 4 -6 -2 -5 -13z"/>
<path d="M3136 3789 c-62 -15 -215 -92 -284 -143 -35 -26 -67 -44 -72 -41 -5
3 -5 -7 0 -24 11 -40 80 -139 126 -181 21 -19 32 -27 24 -16 -13 16 -12 20 5
32 11 7 29 23 41 34 18 19 34 21 126 23 59 1 110 -2 115 -6 4 -5 8 -47 8 -93
0 -46 4 -84 9 -84 5 0 7 42 4 94 -4 77 -10 105 -35 157 -16 35 -44 79 -61 97
l-31 33 27 10 c82 33 111 39 181 41 71 1 73 2 26 8 -54 6 -50 10 35 33 l55 15
-93 1 c-132 1 -257 -34 -412 -114 -62 -33 -77 -38 -55 -20 42 36 176 99 263
125 96 28 95 42 -2 19z m-41 -104 c-38 -19 -86 -37 -105 -41 -19 -3 -53 -18
-75 -31 l-40 -26 25 27 c42 46 178 102 255 104 6 0 -21 -15 -60 -33z m-29 -62
c-25 -49 -63 -75 -143 -98 -43 -13 -82 -20 -87 -17 -15 9 44 50 139 97 50 25
93 45 98 45 4 0 1 -12 -7 -27z m-216 -46 c0 -2 -10 -12 -22 -23 l-23 -19 19
23 c18 21 26 27 26 19z"/>
<path d="M1932 3750 c0 -14 2 -19 5 -12 2 6 2 18 0 25 -3 6 -5 1 -5 -13z"/>
<path d="M1942 3680 c0 -19 2 -27 5 -17 2 9 2 25 0 35 -3 9 -5 1 -5 -18z"/>
<path d="M4435 3653 c-41 -80 -41 -81 -12 -54 25 23 63 111 48 111 -4 0 -20
-26 -36 -57z"/>
<path d="M1995 3638 c32 -105 170 -320 304 -472 90 -104 281 -249 497 -379
125 -75 72 -33 -117 92 -324 215 -480 385 -633 689 -45 89 -65 117 -51 70z"/>
<path d="M2431 3635 c0 -5 6 -21 14 -35 8 -14 14 -20 14 -15 0 6 -6 21 -14 35
-8 14 -14 21 -14 15z"/>
<path d="M2590 3596 c0 -2 8 -10 18 -17 15 -13 16 -12 3 4 -13 16 -21 21 -21
13z"/>
<path d="M2648 3524 c18 -23 32 -46 32 -51 0 -5 -13 -24 -30 -43 -42 -50 -37
-57 13 -19 23 18 34 24 25 13 -10 -11 -18 -23 -18 -27 0 -3 -14 -26 -31 -52
l-30 -45 20 -26 c12 -15 21 -23 21 -19 0 5 -8 17 -17 27 -16 18 -15 20 15 51
21 21 32 26 32 16 0 -8 24 -37 53 -65 66 -63 103 -90 66 -49 -27 31 -44 64
-40 79 1 4 -3 14 -10 22 -16 20 -22 94 -6 94 22 -1 43 -25 54 -65 l12 -40 -35
39 c-60 69 -36 27 31 -54 176 -210 504 -443 672 -475 31 -6 28 -5 -67 33 -195
76 -543 346 -566 438 -9 36 15 60 45 44 12 -6 27 -10 33 -8 6 2 -12 14 -40 25
-66 28 -132 73 -207 142 -55 52 -57 53 -27 15z"/>
<path d="M5592 3314 c1 -131 4 -206 5 -166 2 39 5 72 6 72 1 0 36 -32 77 -71
114 -108 320 -270 470 -371 74 -50 127 -82 118 -71 -10 11 -18 33 -18 49 -1
16 -7 43 -15 59 l-15 30 6 -35 c3 -19 8 -46 12 -60 5 -23 3 -22 -49 15 -30 21
-73 52 -96 68 l-42 30 6 106 c3 58 7 107 8 109 2 2 22 -24 45 -57 24 -34 45
-61 47 -61 20 0 -209 297 -263 340 -10 8 8 -16 40 -54 108 -129 108 -130 104
-250 -1 -57 -6 -108 -10 -112 -11 -11 -228 167 -365 299 l-61 60 -1 150 c0 83
-3 152 -6 155 -3 3 -4 -102 -3 -234z"/>
<path d="M5767 3454 c-6 -6 19 -39 73 -94 19 -20 25 -24 14 -10 -12 14 -35 44
-51 67 -17 23 -33 40 -36 37z"/>
<path d="M5187 3233 c-46 -184 -52 -214 -27 -138 28 84 72 263 68 275 -2 6
-20 -56 -41 -137z"/>
<path d="M3182 3196 c-12 -20 -37 -43 -54 -51 -39 -17 -19 -19 35 -4 21 5 35
14 32 19 -3 5 -1 19 5 30 21 39 4 44 -18 6z"/>
<path d="M5590 3032 c0 -23 192 -137 315 -187 50 -20 94 -41 98 -45 10 -9 -49
-141 -91 -202 -42 -62 -122 -148 -135 -148 -51 3 -242 357 -230 425 l6 27 -24
-23 c-20 -20 -21 -25 -9 -30 9 -4 24 -32 33 -63 62 -195 262 -447 456 -573 61
-40 97 -46 159 -27 169 50 219 220 121 417 -28 56 -87 132 -96 123 -8 -8 -439
207 -508 253 -38 25 -76 50 -82 54 -7 4 -13 4 -13 -1z m534 -290 c125 -60 131
-70 94 -167 -37 -97 -120 -164 -279 -224 -61 -24 -73 -20 -119 39 l-32 40 63
68 c69 73 129 168 157 245 9 26 19 46 22 44 3 -2 45 -22 94 -45z m194 -322 c3
-87 2 -98 -20 -130 -30 -44 -100 -87 -160 -98 -41 -8 -52 -6 -97 18 -54 30
-141 98 -141 110 0 4 16 11 35 14 19 4 70 25 114 47 90 45 140 95 186 185 l29
58 25 -55 c20 -42 26 -75 29 -149z"/>
<path d="M2441 2963 c29 -39 65 -75 84 -85 11 -6 -5 15 -35 46 -54 56 -74 71
-49 39z"/>
<path d="M5466 2857 c3 -10 9 -15 12 -12 3 3 0 11 -7 18 -10 9 -11 8 -5 -6z"/>
<path d="M2584 2832 c24 -41 346 -299 539 -431 35 -24 56 -49 79 -94 85 -169
193 -322 317 -451 91 -93 133 -120 215 -132 l49 -7 -6 56 c-17 165 -209 366
-561 588 -203 127 -463 322 -600 448 -21 20 -36 30 -32 23z m794 -604 c96 -64
147 -104 135 -105 -10 -2 -58 3 -106 10 l-88 12 -54 93 c-30 50 -51 92 -47 92
4 0 76 -46 160 -102z m166 -239 c73 -86 90 -117 78 -144 -13 -27 -19 -30 -41
-16 -12 8 -12 12 -2 25 11 13 6 24 -32 68 -50 60 -69 92 -60 102 12 12 22 6
57 -35z m6 -111 c0 -13 -23 -5 -28 10 -2 7 2 10 12 6 9 -3 16 -11 16 -16z
m184 6 c4 -10 -1 -22 -10 -29 -15 -11 -15 -15 10 -51 31 -47 32 -54 6 -54 -15
0 -27 14 -45 52 l-24 52 21 23 c25 27 34 29 42 7z"/>
<path d="M3328 2823 c6 -2 18 -2 25 0 6 3 1 5 -13 5 -14 0 -19 -2 -12 -5z"/>
<path d="M3528 2823 c7 -3 16 -2 19 1 4 3 -2 6 -13 5 -11 0 -14 -3 -6 -6z"/>
<path d="M4210 2795 c-14 -8 -20 -14 -14 -15 5 0 19 7 30 15 24 18 16 19 -16
0z"/>
<path d="M5330 2803 c0 -6 8 -17 18 -24 16 -13 16 -13 2 6 -8 11 -16 22 -17
24 -2 2 -3 0 -3 -6z"/>
<path d="M2920 2726 c0 -3 15 -15 33 -27 23 -17 28 -18 18 -6 -14 18 -51 42
-51 33z"/>
<path d="M5380 2726 c0 -2 8 -10 18 -17 15 -13 16 -12 3 4 -13 16 -21 21 -21
13z"/>
<path d="M2330 2634 c0 -22 77 -121 163 -207 188 -188 495 -390 827 -542 74
-34 146 -65 160 -69 16 -4 12 0 -10 11 -19 9 -87 41 -150 71 -229 109 -455
245 -635 381 -82 62 -226 203 -288 281 -66 85 -67 86 -67 74z"/>
<path d="M5525 2550 c21 -22 41 -40 44 -40 3 0 -13 18 -34 40 -21 22 -41 40
-44 40 -3 0 13 -18 34 -40z"/>
<path d="M6459 2530 c22 -28 43 -59 46 -71 4 -11 9 -18 12 -16 11 12 -70 137
-88 137 -5 0 8 -23 30 -50z"/>
<path d="M5200 2536 c0 -12 29 -76 35 -76 3 0 -2 17 -10 37 -16 38 -25 52 -25
39z"/>
<path d="M5600 2471 c5 -11 15 -23 21 -27 6 -3 3 5 -6 20 -20 30 -30 35 -15 7z"/>
<path d="M5250 2430 c6 -11 13 -20 16 -20 2 0 0 9 -6 20 -6 11 -13 20 -16 20
-2 0 0 -9 6 -20z"/>
<path d="M6521 2409 c-3 -69 -34 -119 -91 -151 l-35 -19 34 5 c18 4 89 6 158
6 89 0 122 3 117 11 -5 8 -41 9 -120 4 -63 -4 -114 -5 -114 -2 0 4 11 18 25
33 26 28 40 76 32 115 -4 23 -4 23 -6 -2z"/>
<path d="M5275 2390 c44 -82 158 -220 199 -242 11 -6 -16 29 -62 78 -45 48
-82 93 -82 99 -1 5 -15 26 -32 45 -17 19 -27 28 -23 20z"/>
<path d="M5366 2303 c80 -77 331 -145 519 -141 50 1 61 3 30 5 -241 14 -429
65 -555 149 -20 13 -18 10 6 -13z"/>
<path d="M1716 2108 c-11 -121 -16 -433 -5 -343 10 92 24 425 17 425 -3 0 -8
-37 -12 -82z"/>
<path d="M2625 2155 c2 -22 12 -99 20 -170 8 -72 23 -160 35 -197 25 -83 60
-111 205 -167 113 -44 190 -61 281 -61 41 0 83 -8 128 -25 37 -14 72 -25 79
-24 6 0 -10 9 -38 19 -86 30 -163 67 -212 101 -107 74 -264 244 -395 429 -26
36 -61 81 -78 100 l-31 35 6 -40z m77 -231 l-16 -119 -12 65 c-7 36 -16 110
-19 165 l-7 100 35 -46 36 -46 -17 -119z m78 36 c11 -21 8 -23 -27 -14 -13 4
-23 13 -23 20 0 21 38 17 50 -6z m-39 -90 c12 -34 27 -37 71 -14 28 14 32 14
46 0 19 -19 21 -17 -50 -44 l-57 -21 -16 22 c-14 20 -22 87 -9 87 3 0 10 -13
15 -30z m-5 -127 c-8 -8 -36 5 -36 17 0 7 6 7 21 0 11 -7 18 -14 15 -17z m182
-33 c91 -18 108 -24 155 -62 30 -24 62 -48 73 -55 18 -11 18 -12 -3 -12 -48
-2 -179 30 -260 63 -47 20 -88 37 -90 40 -7 6 7 46 15 46 4 0 53 -9 110 -20z
m-148 0 c0 -5 -2 -10 -4 -10 -3 0 -8 5 -11 10 -3 6 -1 10 4 10 6 0 11 -4 11
-10z"/>
<path d="M5698 2103 c6 -2 18 -2 25 0 6 3 1 5 -13 5 -14 0 -19 -2 -12 -5z"/>
<path d="M471 1674 c0 -11 3 -14 6 -6 3 7 2 16 -1 19 -3 4 -6 -2 -5 -13z"/>
<path d="M4270 1680 c-8 -5 -10 -10 -5 -10 6 0 17 5 25 10 8 5 11 10 5 10 -5
0 -17 -5 -25 -10z"/>
<path d="M3768 1655 c-4 -16 -9 -39 -12 -50 -4 -11 1 -5 9 14 9 18 14 41 13
50 -2 9 -7 3 -10 -14z"/>
<path d="M4130 1629 c-202 -86 -238 -98 -335 -118 -55 -11 -132 -22 -171 -23
-60 -2 -69 -5 -54 -15 20 -14 147 -3 262 23 l68 16 43 -33 42 -33 -35 39 c-28
30 -31 37 -15 33 25 -6 228 -138 222 -144 -2 -2 -29 7 -60 21 -32 13 -57 22
-57 19 0 -3 30 -19 66 -35 57 -26 74 -29 115 -24 27 4 51 10 53 14 3 4 -31 26
-74 49 -52 28 -92 59 -119 91 -34 40 -50 71 -38 71 1 0 36 -7 77 -14 190 -37
297 -70 345 -108 28 -22 46 -18 25 7 -24 29 -136 73 -251 99 -64 14 -125 26
-135 26 -11 0 17 16 60 35 44 19 82 37 84 40 15 15 -34 0 -118 -36z m-74 -127
c-8 -7 -65 41 -60 50 4 5 19 -3 35 -18 16 -15 27 -29 25 -32z"/>
<path d="M4830 1635 c13 -14 26 -25 28 -25 3 0 -5 11 -18 25 -13 14 -26 25
-28 25 -3 0 5 -11 18 -25z"/>
<path d="M3410 1500 c14 -4 34 -8 45 -8 16 0 15 2 -5 8 -14 4 -34 8 -45 8 -16
0 -15 -2 5 -8z"/>
<path d="M4526 1388 c11 -22 15 -48 12 -85 -5 -54 5 -72 16 -30 15 56 -6 147
-35 147 -5 0 -2 -14 7 -32z"/>
<path d="M1952 1344 c-20 -79 -22 -94 -14 -94 8 0 33 121 26 129 -1 1 -7 -14
-12 -35z"/>
<path d="M6965 1211 c-60 -119 -111 -273 -124 -376 l-6 -50 -46 -5 c-26 -3
-53 -10 -60 -16 -8 -6 -52 -16 -99 -24 -196 -29 -475 -92 -768 -172 -94 -25
-113 -34 -117 -52 -4 -22 -49 -356 -61 -458 l-6 -58 661 0 661 0 0 630 c0 347
-2 630 -5 630 -3 0 -16 -22 -30 -49z m-41 -275 c-3 -15 -8 -25 -11 -23 -2 3
-1 17 3 31 3 15 8 25 11 23 2 -3 1 -17 -3 -31z m-43 -119 c-10 -9 -11 -8 -5 6
3 10 9 15 12 12 3 -3 0 -11 -7 -18z m-71 -127 c0 -5 -2 -10 -4 -10 -3 0 -8 5
-11 10 -3 6 -1 10 4 10 6 0 11 -4 11 -10z m-271 -54 c-2 -2 -22 -6 -44 -9
l-40 -6 40 13 c35 12 56 13 44 2z m98 -63 c-3 -10 -5 -2 -5 17 0 19 2 27 5 18
2 -10 2 -26 0 -35z m-787 -53 c-37 -20 -70 -26 -70 -12 0 5 17 13 38 19 58 16
70 14 32 -7z m727 -92 c-2 -24 -4 -7 -4 37 0 44 2 63 4 43 2 -21 2 -57 0 -80z
m-457 19 c0 -2 -10 -12 -22 -23 l-23 -19 19 23 c18 21 26 27 26 19z m-243 -79
c-3 -8 -6 -5 -6 6 -1 11 2 17 5 13 3 -3 4 -12 1 -19z m460 -40 c-3 -8 -6 -5
-6 6 -1 11 2 17 5 13 3 -3 4 -12 1 -19z m-50 -30 c-3 -7 -5 -2 -5 12 0 14 2
19 5 13 2 -7 2 -19 0 -25z"/>
<path d="M1932 1210 c0 -14 2 -19 5 -12 2 6 2 18 0 25 -3 6 -5 1 -5 -13z"/>
<path d="M6314 1216 c11 -9 24 -16 30 -16 12 0 7 5 -24 19 -24 11 -24 11 -6
-3z"/>
<path d="M6401 1204 c0 -11 3 -14 6 -6 3 7 2 16 -1 19 -3 4 -6 -2 -5 -13z"/>
<path d="M1921 1144 c0 -11 3 -14 6 -6 3 7 2 16 -1 19 -3 4 -6 -2 -5 -13z"/>
<path d="M1870 1131 c0 -13 95 -107 135 -134 16 -11 -3 12 -42 51 -40 40 -73
76 -73 82 0 5 -4 10 -10 10 -5 0 -10 -4 -10 -9z"/>
<path d="M1945 1090 c9 -16 18 -30 21 -30 2 0 -2 14 -11 30 -9 17 -18 30 -21
30 -2 0 2 -13 11 -30z"/>
<path d="M6423 933 c15 -2 37 -2 50 0 12 2 0 4 -28 4 -27 0 -38 -2 -22 -4z"/>
<path d="M2156 900 c18 -18 189 -89 277 -114 45 -13 111 -26 147 -30 l65 -5
-88 19 c-92 19 -234 63 -279 86 -50 25 -133 55 -122 44z"/>
<path d="M6073 820 c-68 -32 -123 -61 -123 -64 0 -4 40 14 90 39 49 25 92 45
94 45 3 0 7 -10 9 -22 4 -20 4 -19 6 5 0 15 5 27 9 27 5 0 17 7 28 15 31 24
15 17 -113 -45z"/>
<path d="M6670 866 c0 -2 7 -7 16 -10 8 -3 12 -2 9 4 -6 10 -25 14 -25 6z"/>
<path d="M6142 754 c-2 -40 -1 -41 26 -35 24 5 25 6 5 9 -16 2 -23 12 -26 35
-3 28 -4 27 -5 -9z"/>
<path d="M6257 760 c-3 -11 -1 -20 4 -20 5 0 9 9 9 20 0 11 -2 20 -4 20 -2 0
-6 -9 -9 -20z"/>
<path d="M6208 733 c6 -2 18 -2 25 0 6 3 1 5 -13 5 -14 0 -19 -2 -12 -5z"/>
<path d="M1620 679 c-7 -24 -23 -77 -36 -118 -21 -63 -30 -111 -21 -111 1 0
29 14 61 30 32 17 65 30 72 30 8 0 14 6 14 13 -1 19 -59 180 -69 190 -6 6 -14
-7 -21 -34z"/>
<path d="M5695 590 c21 -22 41 -40 44 -40 3 0 -13 18 -34 40 -21 22 -41 40
-44 40 -3 0 13 -18 34 -40z"/>
<path d="M1355 585 c46 -42 102 -84 92 -69 -3 6 -34 32 -69 58 -49 37 -54 39
-23 11z"/>
<path d="M3614 581 c4 -6 13 -11 20 -11 16 0 120 -71 165 -114 18 -17 53 -61
78 -98 43 -66 58 -84 47 -53 -3 8 4 26 15 41 14 18 21 41 21 70 0 23 5 46 11
49 18 11 -20 43 -75 64 -52 19 -126 36 -206 46 -25 3 -53 9 -64 12 -12 3 -16
1 -12 -6z"/>
<path d="M1663 465 c-29 -13 -53 -29 -53 -34 0 -6 11 -18 25 -27 14 -9 24 -19
21 -21 -2 -3 -16 3 -30 13 -15 9 -29 14 -32 11 -9 -8 55 -39 66 -32 6 3 25 -6
44 -20 35 -27 77 -28 75 -2 0 22 -45 131 -55 134 -5 1 -33 -8 -61 -22z"/>
<path d="M690 414 c0 -3 14 -19 30 -34 l31 -29 -26 -51 c-14 -29 -25 -61 -23
-73 3 -17 11 -8 31 38 15 32 29 61 32 63 2 2 38 -17 80 -42 68 -42 135 -68
135 -53 0 3 -35 24 -77 47 -43 23 -91 53 -108 67 -16 14 -24 22 -16 18 9 -5
12 -4 7 3 -4 6 -12 9 -19 6 -7 -2 -24 7 -37 21 -22 24 -40 32 -40 19z"/>
<path d="M5353 173 c57 -118 86 -173 92 -173 3 0 -24 59 -60 130 -36 72 -67
130 -69 130 -3 0 14 -39 37 -87z"/>
<path d="M1000 215 c0 -9 77 -43 185 -80 112 -38 208 -82 258 -117 15 -11 32
-18 39 -16 20 7 -99 77 -194 114 -51 20 -132 52 -179 70 -83 33 -109 40 -109
29z"/>
</g>
</svg>
